<?xml version="1.0" encoding="UTF-8"?>
<!DOCTYPE svg PUBLIC "-//W3C//DTD SVG 1.1//EN" "http://www.w3.org/Graphics/SVG/1.1/DTD/svg11.dtd">
<!-- Creator: CorelDRAW X7 -->
<svg xmlns="http://www.w3.org/2000/svg" xml:space="preserve" width="24px" height="19px" version="1.1" style="shape-rendering:geometricPrecision; text-rendering:geometricPrecision; image-rendering:optimizeQuality; fill-rule:evenodd; clip-rule:evenodd"
viewBox="0 0 2400000 1901177"
 xmlns:xlink="http://www.w3.org/1999/xlink">
 <defs>
  <style type="text/css">
   <![CDATA[
    .str2 {stroke:#FCCD03;stroke-width:4248.92}
    .str1 {stroke:#FECE01;stroke-width:4248.92}
    .str0 {stroke:#FFE201;stroke-width:4248.92}
    .fil2 {fill:#FCCD03}
    .fil1 {fill:#FECE01}
    .fil0 {fill:#FFE201}
   ]]>
  </style>
 </defs>
 <g id="Camada_x0020_1">
  <metadata id="CorelCorpID_0Corel-Layer"/>
  <g id="_522966660272">
   <path class="fil0 str0" d="M3059 1795243c-835,-367 -901,-1412 -1927,-17637 -1026,-16222 -3010,-47622 -2443,-69835 567,-22211 3688,-35236 7508,-47639 3818,-12403 8332,-24185 20306,-42224 11973,-18036 31403,-42329 55958,-66438 24554,-24108 54235,-48032 100659,-85794 46423,-37762 109592,-89365 162559,-131774 52969,-42406 95737,-75617 129649,-104871 33915,-29254 58975,-54548 92818,-91904 33842,-37357 76470,-86774 118632,-139679 42162,-52906 83858,-109299 128287,-169538 44431,-60237 91592,-124319 126582,-172598 34990,-48280 57808,-80755 81870,-107306 24064,-26551 49368,-47182 78794,-66064 29428,-18885 62973,-36025 95541,-46080 32568,-10055 64159,-13027 95645,-15215 31487,-2188 62869,-3595 97063,-4062 34195,-470 71201,0 117807,-1404 46607,-1407 102818,-4687 146380,-11243 43562,-6558 74479,-16397 97196,-24873 22719,-8477 37239,-15594 53634,-26367 16394,-10773 34662,-25204 50120,-42691 15457,-17488 28104,-38032 37707,-69884 9602,-31852 16161,-75012 19679,-106786 3520,-31773 4002,-52159 8833,-70988 4831,-18832 14013,-36106 24270,-46781 10259,-10677 21595,-14759 33435,-14191 11839,567 24182,5782 45393,24357 21211,18574 51287,50509 86825,91379 35537,40868 76540,90674 110159,134474 33622,43800 59861,81592 78964,111521 19105,29927 31072,51992 41108,75718 10036,23724 18139,49109 22235,63850 4096,14740 4183,18836 4264,22649 83,3814 157,7345 -657,9471 -813,2125 -2517,2843 -24446,12086 -21926,9244 -64080,27015 -101910,44210 -37828,17193 -71333,33813 -112118,56158 -40786,22345 -88850,50418 -131487,77687 -42638,27268 -79848,53736 -115497,81140 -35646,27403 -69728,55741 -100886,80729 -31155,24990 -59383,46626 -98551,74439 -39167,27815 -89274,61805 -150403,101288 -61127,39483 -133276,84455 -188807,119322 -55529,34867 -94441,59623 -142913,89752 -48469,30131 -106501,65635 -148480,89928 -41977,24293 -67900,37380 -94819,52717 -26919,15336 -54832,32927 -80986,52068 -26155,19141 -50552,39836 -66868,53706 -16315,13873 -24550,20920 -35538,29645 -10985,8727 -24722,19129 -43587,29953 -18863,10824 -42853,22066 -65744,30823 -22891,8760 -44679,15029 -78124,20412 -33446,5384 -78546,9881 -118662,18451 -40116,8572 -75246,21219 -103510,32797 -28262,11579 -49653,22086 -96535,38502 -46883,16416 -119257,38735 -166995,52117 -47739,13384 -70845,17827 -83198,20202 -12354,2377 -13956,2685 -14789,2315z"/>
   <path class="fil1 str1" d="M566841 1411095c21610,-8929 71185,-28067 132186,-57444 61002,-29377 133433,-68993 212508,-117327 79074,-48334 164794,-105380 236590,-156579 71798,-51199 129673,-96550 197768,-153830 68097,-57277 146413,-126486 227797,-201621 81386,-75136 165839,-156203 245638,-236091 79801,-79891 154948,-158604 197588,-203360 42640,-44756 52769,-55557 57834,-60955 5067,-5400 5067,-5400 -23924,37354 -28988,42755 -86964,128262 -156713,220256 -69748,91993 -151265,190470 -208880,256460 -57616,65988 -91331,99486 -130136,135396 -38803,35910 -82701,74231 -136501,120661 -53800,46432 -117506,100977 -189389,149557 -71881,48580 -151939,91197 -193277,113043 -41337,21848 -43953,22923 -70030,34643 -26076,11721 -75616,34085 -115312,50431 -39695,16345 -69546,26670 -116679,38297 -47133,11629 -111547,24557 -146932,31659 -35385,7104 -41743,8379 -20136,-550z"/>
   <path class="fil1 str1" d="M6609 1819551c92,-282 442,-367 16607,-4270 16165,-3900 48142,-11616 108044,-28070 59903,-16454 147732,-41644 199374,-59562 51643,-17915 67101,-28561 92821,-38877 25721,-10314 61703,-20301 95429,-26626 33726,-6322 65195,-8982 85495,-12069 20301,-3087 29436,-6599 49108,-13743 19673,-7143 49887,-17918 74771,-31092 24886,-13173 44441,-28748 67921,-44934 23481,-16186 50883,-32982 74889,-50313 24006,-17332 44618,-35199 80451,-59120 35833,-23921 86890,-53902 158323,-97432 71433,-43528 163244,-100610 258800,-158928 95556,-58317 194859,-117870 270743,-166853 75883,-48982 128344,-87392 168159,-119480 39817,-32085 66986,-57847 101179,-86420 34196,-28574 75414,-59957 124598,-91342 49183,-31384 106331,-62767 152234,-87124 45905,-24359 80568,-41690 110211,-55592 29642,-13905 54265,-24381 66576,-29617 12311,-5239 12311,-5239 15400,-1396 3089,3841 9269,11525 13875,23579 4606,12052 7637,28472 6915,48400 -722,19925 -5203,43355 -12740,59382 -7536,16027 -18130,24650 -49437,51674 -31306,27023 -83325,72446 -110399,96750 -27072,24305 -29199,27492 -30654,29670 -1455,2179 -2239,3352 -2333,4580 -93,1230 504,2520 2333,6475 1829,3958 4895,10584 7480,20646 2588,10061 4695,23558 4698,33500 2,9945 -2106,16333 -5344,22180 -3235,5846 -7605,11149 -17188,18395 -9582,7249 -24377,16440 -39843,25228 -15464,8789 -31595,17177 -47332,25466 -15736,8292 -31077,16490 -44134,19475 -13057,2987 -23832,761 -33552,-4977 -9719,-5736 -18385,-14988 -24660,-23641 -6274,-8653 -10155,-16709 -12322,-21205 -2167,-4495 -2617,-5430 -3476,-5721 -858,-289 -2122,68 -6866,1400 -4742,1334 -12961,3646 -32207,10289 -19245,6643 -49517,17620 -89040,34306 -39523,16685 -88301,39079 -132010,60116 -43708,21036 -82350,40715 -115479,59939 -33129,19224 -60746,37994 -132069,80525 -71320,42534 -186349,108826 -266063,154767 -79711,45942 -124108,71529 -146638,84513 -22528,12985 -23189,13363 -23441,13790 -253,429 -98,905 1451,5702 1550,4797 4497,13917 6464,21954 1970,8039 2962,14997 2456,22080 -505,7083 -2505,14293 -8982,22948 -6475,8655 -17427,18759 -32152,28551 -14722,9794 -33218,19279 -49818,23898 -16599,4618 -31300,4374 -43012,95 -11710,-4276 -20427,-12583 -26233,-19098 -5804,-6514 -8693,-11237 -10231,-13746 -1536,-2509 -1719,-2808 -1993,-2868 -272,-57 -633,123 -9989,4787 -9354,4665 -27703,13811 -53526,27407 -25820,13599 -59117,31644 -91789,48551 -32672,16906 -64720,32672 -95356,46661 -30635,13992 -59857,26205 -74633,32381 -14773,6176 -15100,6312 -15345,6582 -244,272 -407,675 -1064,2298 -654,1623 -1799,4462 -3068,11723 -1266,7261 -2653,18942 -6050,27841 -3395,8902 -8800,15020 -17142,21209 -8341,6188 -19620,12445 -30782,16320 -11159,3875 -22200,5368 -31480,4843 -9279,-522 -16796,-3063 -24988,-8285 -8192,-5222 -17057,-13129 -21642,-17214 -4584,-4084 -4888,-4345 -5432,-4328 -544,17 -1328,312 -13754,5014 -12425,4701 -36491,13809 -48917,18510 -12424,4702 -13208,4997 -13665,5492 -457,495 -586,1190 -1349,5254 -760,4066 -2152,11501 -3588,18104 -1434,6603 -2908,12369 -6363,18545 -3452,6175 -8884,12759 -15908,18017 -7023,5258 -15638,9191 -24599,12090 -8961,2902 -18268,4774 -28196,5050 -9927,279 -20477,-1036 -29324,-4631 -8846,-3595 -15988,-9467 -21193,-15018 -5205,-5549 -8470,-10777 -10397,-13860 -1927,-3080 -2511,-4017 -3144,-4357 -634,-338 -1311,-79 -6845,2029 -5533,2109 -15921,6069 -29541,8763 -13620,2694 -30473,4122 -46832,2762 -16358,-1360 -32219,-5507 -44560,-12498 -12341,-6992 -21162,-16824 -26647,-24790 -5488,-7965 -7644,-14064 -8806,-17355 -1162,-3289 -1334,-3769 -1243,-4054z"/>
   <circle class="fil2 str2" cx="629660" cy="1148548" r="29509"/>
   <circle class="fil2 str2" cx="705543" cy="1057209" r="29509"/>
   <circle class="fil2 str2" cx="776506" cy="964463" r="29509"/>
   <circle class="fil2 str2" cx="846061" cy="873887" r="29509"/>
   <circle class="fil2 str2" cx="914919" cy="790912" r="29509"/>
   <circle class="fil2 str2" cx="979806" cy="690946" r="29509"/>
   <circle class="fil2 str2" cx="554915" cy="1222060" r="29509"/>
   <circle class="fil2 str2" cx="476484" cy="1284150" r="29509"/>
  </g>
 </g>
</svg>
