<?xml version="1.0" encoding="UTF-8"?>
<!DOCTYPE svg PUBLIC "-//W3C//DTD SVG 1.1//EN" "http://www.w3.org/Graphics/SVG/1.1/DTD/svg11.dtd">
<!-- Creator: CorelDRAW X7 -->
<svg xmlns="http://www.w3.org/2000/svg" xml:space="preserve" width="24px" height="19px" version="1.1" style="shape-rendering:geometricPrecision; text-rendering:geometricPrecision; image-rendering:optimizeQuality; fill-rule:evenodd; clip-rule:evenodd"
viewBox="0 0 240000 190118"
 xmlns:xlink="http://www.w3.org/1999/xlink">
 <defs>
  <style type="text/css">
   <![CDATA[
    .str0 {stroke:#E6E7E8;stroke-width:424.892}
    .str3 {stroke:#D2D3D5;stroke-width:424.892}
    .str1 {stroke:#D2D3D5;stroke-width:424.892}
    .str2 {stroke:#BDBFC1;stroke-width:424.892}
    .fil0 {fill:#E6E7E8}
    .fil3 {fill:#D2D3D5}
    .fil1 {fill:#D2D3D5}
    .fil2 {fill:#BDBFC1}
   ]]>
  </style>
 </defs>
 <g id="Camada_x0020_1">
  <metadata id="CorelCorpID_0Corel-Layer"/>
  <g id="_478815242672">
   <path class="fil0 str0" d="M744 179871c-83,-36 -90,-141 -192,-1763 -103,-1622 -302,-4762 -245,-6984 57,-2221 369,-3523 751,-4764 382,-1240 833,-2418 2031,-4222 1197,-1804 3140,-4233 5595,-6644 2456,-2411 5424,-4803 10066,-8579 4643,-3776 10959,-8937 16256,-13178 5297,-4240 9574,-7561 12965,-10487 3392,-2925 5898,-5455 9282,-9190 3384,-3736 7647,-8678 11863,-13968 4216,-5291 8386,-10930 12829,-16954 4443,-6024 9159,-12432 12658,-17260 3499,-4828 5781,-8075 8187,-10730 2406,-2655 4937,-4718 7879,-6607 2943,-1888 6298,-3602 9554,-4608 3257,-1005 6416,-1302 9565,-1521 3149,-219 6287,-360 9706,-406 3420,-47 7120,0 11781,-141 4661,-140 10282,-468 14638,-1124 4356,-656 7448,-1640 9720,-2487 2271,-848 3724,-1560 5363,-2637 1639,-1077 3466,-2520 5012,-4269 1546,-1749 2810,-3803 3771,-6989 960,-3185 1616,-7501 1968,-10678 352,-3177 400,-5216 883,-7099 483,-1883 1401,-3611 2427,-4678 1026,-1068 2159,-1476 3343,-1419 1184,57 2419,578 4540,2435 2121,1858 5128,5051 8682,9138 3554,4087 7654,9068 11016,13448 3362,4380 5986,8159 7896,11152 1911,2993 3108,5199 4111,7572 1004,2372 1814,4911 2224,6385 409,1474 418,1883 426,2265 8,381 16,734 -66,947 -81,212 -251,284 -2444,1208 -2193,925 -6408,2702 -10191,4421 -3783,1720 -7133,3382 -11212,5616 -4079,2235 -8885,5042 -13149,7769 -4263,2727 -7984,5373 -11549,8114 -3565,2740 -6973,5574 -10089,8073 -3115,2499 -5938,4662 -9855,7444 -3917,2781 -8927,6180 -15040,10128 -6113,3949 -13328,8446 -18881,11933 -5553,3486 -9444,5962 -14291,8975 -4847,3013 -10650,6563 -14848,8993 -4198,2429 -6790,3738 -9482,5271 -2692,1534 -5483,3293 -8099,5207 -2615,1914 -5055,3984 -6687,5371 -1631,1387 -2455,2092 -3553,2964 -1099,873 -2473,1913 -4359,2995 -1886,1083 -4285,2207 -6574,3083 -2290,876 -4468,1503 -7813,2041 -3344,538 -7855,988 -11866,1845 -4012,857 -7525,2122 -10351,3280 -2826,1158 -4965,2208 -9654,3850 -4688,1642 -11925,3874 -16699,5212 -4774,1338 -7085,1782 -8320,2020 -1235,238 -1396,268 -1479,231z"/>
   <path class="fil1 str1" d="M57122 141457c2161,-893 7119,-2807 13219,-5745 6100,-2937 13343,-6899 21251,-11732 7907,-4834 16479,-10538 23659,-15658 7180,-5120 12967,-9655 19777,-15383 6809,-5728 14641,-12649 22779,-20163 8139,-7513 16584,-15620 24564,-23609 7980,-7989 15495,-15860 19759,-20336 4264,-4475 5277,-5555 5783,-6095 507,-540 507,-540 -2392,3735 -2899,4276 -8697,12827 -15671,22026 -6975,9199 -15127,19047 -20888,25646 -5762,6599 -9134,9949 -13014,13540 -3880,3591 -8270,7423 -13650,12066 -5380,4643 -11751,10097 -18939,14955 -7188,4858 -15194,9120 -19328,11305 -4133,2184 -4395,2292 -7003,3464 -2607,1172 -7561,3408 -11531,5043 -3969,1635 -6955,2667 -11668,3830 -4713,1163 -11155,2455 -14693,3166 -3539,710 -4174,838 -2014,-55z"/>
   <path class="fil2 str2" d="M1099 182302c9,-28 44,-36 1661,-427 1616,-390 4814,-1161 10804,-2807 5991,-1645 14774,-4164 19938,-5956 5164,-1791 6710,-2856 9282,-3888 2572,-1031 6170,-2030 9543,-2662 3372,-632 6519,-898 8549,-1207 2030,-309 2944,-660 4911,-1374 1967,-715 4989,-1792 7477,-3110 2489,-1317 4444,-2874 6792,-4493 2348,-1619 5088,-3298 7489,-5031 2401,-1734 4462,-3520 8045,-5912 3584,-2392 8689,-5391 15833,-9744 7143,-4352 16324,-10061 25879,-15892 9556,-5832 19486,-11787 27075,-16686 7588,-4898 12834,-8739 16816,-11948 3981,-3208 6698,-5784 10118,-8642 3419,-2857 7541,-5995 12459,-9134 4919,-3138 10633,-6277 15224,-8712 4590,-2436 8057,-4169 11021,-5559 2964,-1391 5426,-2439 6657,-2962 1232,-524 1232,-524 1540,-140 309,384 927,1153 1388,2358 461,1205 764,2847 691,4840 -72,1993 -520,4336 -1274,5938 -753,1603 -1813,2465 -4943,5168 -3131,2702 -8333,7244 -11040,9675 -2707,2430 -2920,2749 -3066,2967 -145,218 -223,335 -233,458 -9,123 51,252 233,647 183,396 490,1059 749,2065 258,1006 469,2356 469,3350 0,994 -210,1633 -534,2218 -324,584 -761,1115 -1719,1839 -958,725 -2438,1644 -3984,2523 -1547,879 -3160,1718 -4733,2547 -1574,829 -3108,1649 -4414,1947 -1306,299 -2383,76 -3355,-498 -972,-573 -1838,-1498 -2466,-2364 -627,-865 -1016,-1670 -1232,-2120 -217,-450 -262,-543 -348,-572 -86,-29 -212,7 -686,140 -475,133 -1297,364 -3221,1029 -1925,664 -4952,1762 -8904,3430 -3952,1669 -8830,3908 -13201,6012 -4371,2104 -8235,4071 -11548,5994 -3313,1922 -6075,3799 -13207,8052 -7132,4254 -18635,10883 -26606,15477 -7971,4594 -12411,7153 -14664,8451 -2253,1299 -2319,1337 -2344,1379 -25,43 -10,91 145,571 155,479 450,1391 646,2195 197,804 297,1500 246,2208 -51,708 -250,1429 -898,2295 -648,865 -1743,1876 -3215,2855 -1473,979 -3322,1928 -4982,2390 -1660,461 -3130,437 -4301,9 -1171,-427 -2043,-1258 -2624,-1910 -580,-651 -869,-1123 -1023,-1374 -153,-251 -172,-281 -199,-287 -27,-6 -63,12 -999,479 -935,466 -2770,1381 -5353,2740 -2582,1360 -5911,3165 -9179,4855 -3267,1691 -6471,3268 -9535,4667 -3064,1399 -5986,2620 -7463,3238 -1478,617 -1510,631 -1535,658 -24,27 -41,67 -106,230 -66,162 -180,446 -307,1172 -127,726 -265,1894 -605,2784 -340,890 -880,1502 -1714,2121 -834,619 -1962,1244 -3078,1632 -1116,387 -2221,537 -3149,484 -927,-52 -1679,-306 -2498,-828 -819,-522 -1706,-1313 -2164,-1722 -459,-408 -489,-434 -544,-432 -54,1 -132,31 -1375,501 -1243,470 -3649,1381 -4892,1851 -1242,470 -1321,500 -1366,549 -46,50 -59,119 -135,526 -76,406 -215,1150 -359,1810 -143,660 -291,1237 -636,1854 -346,618 -889,1276 -1591,1802 -702,526 -1564,919 -2460,1209 -896,290 -1827,478 -2820,505 -992,28 -2047,-104 -2932,-463 -885,-359 -1599,-947 -2119,-1502 -521,-555 -847,-1077 -1040,-1386 -193,-308 -251,-401 -314,-435 -64,-34 -132,-8 -685,202 -553,211 -1592,607 -2954,877 -1362,269 -3047,412 -4683,276 -1636,-136 -3222,-551 -4456,-1250 -1234,-699 -2116,-1682 -2665,-2479 -549,-796 -764,-1406 -881,-1735 -116,-329 -133,-377 -124,-406z"/>
   <circle class="fil3 str3" cx="63404" cy="115202" r="2951"/>
   <circle class="fil3 str3" cx="70993" cy="106068" r="2951"/>
   <circle class="fil3 str3" cx="78089" cy="96793" r="2951"/>
   <circle class="fil3 str3" cx="85044" cy="87736" r="2951"/>
   <circle class="fil3 str3" cx="91930" cy="79438" r="2951"/>
   <circle class="fil3 str3" cx="98419" cy="69442" r="2951"/>
   <circle class="fil3 str3" cx="55930" cy="122553" r="2951"/>
   <circle class="fil3 str3" cx="48087" cy="128762" r="2951"/>
  </g>
 </g>
</svg>
