<?xml version="1.0" encoding="UTF-8"?>
<!DOCTYPE svg PUBLIC "-//W3C//DTD SVG 1.1//EN" "http://www.w3.org/Graphics/SVG/1.1/DTD/svg11.dtd">
<!-- Creator: CorelDRAW X7 -->
<svg xmlns="http://www.w3.org/2000/svg" xml:space="preserve" width="24px" height="26px" version="1.1" style="shape-rendering:geometricPrecision; text-rendering:geometricPrecision; image-rendering:optimizeQuality; fill-rule:evenodd; clip-rule:evenodd"
viewBox="0 0 240000 256949"
 xmlns:xlink="http://www.w3.org/1999/xlink">
 <defs>
  <style type="text/css">
   <![CDATA[
    .str0 {stroke:#F7D801;stroke-width:985.424}
    .str1 {stroke:#017046;stroke-width:375.447}
    .fil3 {fill:#009A3C}
    .fil4 {fill:#017046}
    .fil2 {fill:#E5BD01}
    .fil1 {fill:#F7D801}
    .fil0 {fill:#FEF202}
    .fil5 {fill:#373435;fill-rule:nonzero}
   ]]>
  </style>
 </defs>
 <g id="Camada_x0020_1">
  <metadata id="CorelCorpID_0Corel-Layer"/>
  <g id="_386559496496">
   <g>
    <path class="fil0" d="M209475 27780c-1495,5264 -4220,10650 -6150,15999l-12015 32210c-1464,4154 -4500,13250 -5081,16997l-1072 11424c-780,1855 -560,41156 -135,43635 -3983,721 -20007,5421 -22400,7987 -3389,-3244 -9618,503 -15066,230 -23977,-1202 4457,-4167 -18599,428 -1618,1070 -9654,2852 -9824,5240 -1302,-1839 -140,-82586 -140,-88386 0,-8065 0,-16130 0,-24195 0,-4884 -1204,-34360 -378,-38056 4286,-774 9643,-788 13901,-1501 2709,-453 3295,2846 5530,1231 4122,-2978 12225,-4157 13982,-9216 4999,1858 9832,4274 14956,6065 5159,1804 10457,3430 15585,5245 6376,2259 24278,8701 26906,14663z"/>
    <path class="fil0" d="M185032 147861l-10 184 45 10984c-177,16103 -52,32311 -49,48424 2,12373 349,30465 14,42576 -69,2467 -409,2160 -2348,3167 -8291,2284 -19057,1993 -27713,2175l-20144 -11 -15182 -45c-1530,-2176 -652,-10185 -652,-13238 0,-13484 490,-88608 -139,-93766l165 16c2098,-37 4671,-243 6378,-1420 1450,-1001 2399,-3040 3505,-3717 170,2411 -179,3027 1186,5139l8025 -383 407 -3531c3229,2276 3945,4323 9024,3746 3852,-438 5327,-2381 7507,-4797 3364,3124 6198,5074 11327,4855 5942,-253 8186,-3940 10420,-5706 2559,2402 4083,4795 8234,5348z"/>
    <path class="fil1" d="M98332 52562c-2855,-2186 -3521,-4055 -7380,-6227 -7314,-4117 -13731,-3901 -20844,182 -3589,2060 -4406,3772 -7157,6082 833,3466 2250,5840 2919,10026 578,3608 228,8529 1299,11647 2046,5952 10361,11808 13657,11733 2068,-47 6946,-3129 8351,-4554 7801,-7909 4637,-9722 6296,-19191 692,-3949 2047,-6356 2859,-9698zm20690 -39884c-826,3696 -29,31787 -29,36671 0,8065 0,16130 0,24195 -31,4338 -1171,85185 140,88386 -830,17154 -8728,7625 -10387,5337 -12645,-1001 -27166,-16156 -31284,-9729 -2382,-4476 -11689,487 -21877,-378l-921 -52375c139,-4697 -1578,-9492 -2174,-13984 -2931,-10182 -6632,-22227 -11231,-31880 -2271,-4765 -4531,-10228 -6541,-15142 -1438,-3516 -4635,-12089 -6226,-14838 903,-5262 20278,-12701 25603,-14684 4888,-1820 9799,-3874 14561,-5875 2883,-1212 11982,-5950 14025,-6173 6782,5250 17402,6820 25488,9787 3041,1115 6487,-156 8360,384 1828,527 2118,2915 2493,298z"/>
    <path class="fil1" d="M118854 148311c629,5158 139,80282 139,93766 0,3053 -878,11062 652,13238 -3984,-40 -22599,-603 -24913,191 -1220,-564 -22792,-1290 -24738,-809 -225,-121 -13487,-2017 -14618,-2045l-405 -728 7 -25697 57 -13349 27 -6329 16 -6732 -23 -9604c634,-2090 745,-38305 273,-41981 2736,-91 6035,-893 7936,-2940 1278,1815 33,2848 3363,3049 1816,110 3970,152 5615,-375 2754,-2801 4787,-16001 7358,-17966 4509,1861 584,10237 2481,17476 1909,1064 4420,1146 6650,797 2939,-461 2433,-2533 2534,-5022 2149,1374 3341,3372 6468,4358 4324,1363 5560,234 9195,260l412 7285c2459,1385 6296,1441 8768,-15 705,-2828 138,-4480 482,-7130l2264 302z"/>
    <path class="fil1" d="M238158 97015c-2404,268 -7944,2211 -10760,2934 -3746,963 -7910,1786 -11759,2439 -7894,1338 -16865,2785 -24841,3152l-2709 -9486c-39,-153 -416,-1601 -433,-1640 -912,-2065 166,-1020 -1427,-1428 581,-3747 3617,-12843 5081,-16997l12015 -32210c1930,-5349 4655,-10735 6150,-15999 2932,1283 9722,9518 11774,12556 7046,10428 9252,23854 12363,36481 1113,4518 4509,16303 4546,20198z"/>
    <path class="fil2" d="M52490 90801c-1315,1573 -3442,12082 -4292,14947 -6836,218 -17784,-1581 -24669,-2865 -3858,-720 -7475,-1545 -11275,-2457 -3468,-833 -7450,-2427 -10732,-3029l1789 -7999 3375 -13349c2240,-4255 3299,-17540 5525,-23573 2494,-6757 6750,-13147 11262,-18467 1347,-796 2901,-3974 5019,-5068 1591,2749 4788,11322 6226,14838 2010,4914 4270,10377 6541,15142 4599,9653 8300,21698 11231,31880z"/>
    <path class="fil3" d="M238465 105493c-42,-6 -14168,4015 -15992,4463l-3348 738c-7099,1492 -19110,3117 -26182,2122l-2145 -7276c7976,-367 16947,-1814 24841,-3152 3849,-653 8013,-1476 11759,-2439 2816,-723 8356,-2666 10760,-2934 1195,1559 1569,5514 1752,7605l-1445 873z"/>
    <path class="fil4" d="M48198 105748c-836,2614 -995,5128 -2389,7454 -2691,635 -5356,392 -8110,301 -2735,-575 -7845,-722 -11108,-1171 -2490,-342 -8726,-1989 -10581,-1594 -2050,-1568 -6474,-2009 -9207,-2811 -1481,-435 -2888,-899 -4306,-1488 -2570,-1067 -2734,-952 -2510,-3692l1535 -5350c3282,602 7264,2196 10732,3029 3800,912 7417,1737 11275,2457 6885,1284 17833,3083 24669,2865z"/>
    <polygon class="fil1 str0" points="54678,28773 111061,28773 111061,87274 54678,87274 "/>
    <path class="fil4 str1" d="M144413 13433c-948,-496 -484,-2163 -2131,-1839 -14142,2778 -32077,2875 -46087,-102 -2446,-520 -1996,818 -2470,2024 -398,-374 -1247,-748 -2000,-1265 -848,-584 -1740,-1557 -2665,-2269 -2991,-2304 -5915,-6239 -6293,-7669 11165,3471 22069,5056 34128,5258 6204,103 12686,-308 18796,-1206 3020,-443 13769,-2693 14892,-3916l1542 -285c-993,1848 -5776,10217 -7712,11269z"/>
   </g>
   <path class="fil5" d="M72026 56831c0,-949 -339,-1637 -1017,-2070 -678,-433 -1715,-652 -3124,-652l-1616 0 0 6038 1465 0c1388,0 2446,-291 3186,-881 736,-584 1106,-1397 1106,-2435zm4662 14486l-3546 0 -5491 -8729 -1382 0 0 8729 -3003 0 0 -19773 4479 0c1048,0 2028,83 2930,250 908,172 1695,454 2363,855 667,407 1193,939 1574,1601 381,657 574,1491 574,2487 0,735 -131,1403 -391,2003 -261,599 -600,1126 -1022,1569 -428,449 -913,824 -1460,1127 -553,297 -1122,516 -1700,646l6075 9235zm13073 0l-9887 0 0 -19773 9855 0 0 2565 -6883 0 0 6007 6915 0 0 2534 -6915 0 0 6133 6915 0 0 2534zm15638 -5522c0,803 -141,1559 -423,2268 -276,704 -688,1325 -1235,1846 -543,527 -1220,939 -2034,1241 -808,298 -1747,449 -2816,449 -522,0 -1038,-32 -1554,-100 -511,-67 -1001,-161 -1465,-291 -464,-125 -897,-277 -1293,-444 -397,-167 -741,-349 -1038,-542l0 -3066c329,235 709,464 1152,693 449,230 913,433 1403,610 490,183 975,324 1460,438 485,110 918,167 1309,167 589,0 1105,-72 1549,-219 443,-146 818,-360 1116,-631 302,-276 526,-605 672,-985 152,-381 224,-798 224,-1251 0,-522 -93,-960 -281,-1314 -188,-361 -459,-668 -803,-934 -344,-266 -761,-506 -1252,-720 -490,-213 -1032,-438 -1637,-673 -824,-323 -1559,-651 -2201,-985 -641,-329 -1178,-704 -1616,-1126 -438,-423 -772,-913 -1001,-1471 -230,-552 -344,-1215 -344,-1976 0,-835 167,-1590 506,-2268 333,-678 792,-1252 1371,-1726 584,-475 1262,-840 2039,-1100 782,-261 1616,-392 2498,-392 949,0 1804,89 2570,261 761,172 1460,391 2091,652l0 2748c-297,-141 -636,-282 -1022,-412 -391,-130 -798,-251 -1225,-355 -428,-109 -855,-193 -1283,-260 -428,-68 -840,-100 -1225,-100 -543,0 -1017,68 -1440,209 -417,136 -771,329 -1058,574 -292,240 -511,537 -657,876 -152,344 -224,714 -224,1126 0,454 99,850 292,1184 192,328 469,625 824,886 354,256 787,496 1288,714 506,220 1069,454 1689,700 798,312 1507,641 2133,985 626,339 1157,730 1590,1173 433,444 767,955 1001,1528 235,579 350,1246 350,2013zm14017 5522l-9887 0 0 -19773 9855 0 0 2565 -6883 0 0 6007 6915 0 0 2534 -6915 0 0 6133 6915 0 0 2534zm13448 -14486c0,-949 -339,-1637 -1017,-2070 -678,-433 -1716,-652 -3124,-652l-1616 0 0 6038 1465 0c1387,0 2446,-291 3186,-881 735,-584 1106,-1397 1106,-2435zm4661 14486l-3546 0 -5491 -8729 -1381 0 0 8729 -3004 0 0 -19773 4480 0c1048,0 2028,83 2930,250 907,172 1695,454 2362,855 667,407 1194,939 1575,1601 380,657 573,1491 573,2487 0,735 -130,1403 -391,2003 -260,599 -599,1126 -1022,1569 -427,449 -912,824 -1460,1127 -552,297 -1121,516 -1700,646l6075 9235zm18768 -19773l-7702 19773 -3025 0 -7577 -19773 3223 0 4907 13385c57,162 146,412 266,751 115,334 229,678 344,1027 110,355 209,673 292,960 78,281 125,469 136,547 10,-52 36,-156 78,-312 36,-157 88,-345 151,-559 62,-213 130,-443 203,-688 79,-245 152,-479 225,-704 73,-224 135,-427 193,-610 51,-182 99,-318 125,-412l5027 -13385 3134 0zm18428 19773l-3223 0 -2211 -5663 -7623 0 -2055 5663 -3222 0 7670 -19773 2905 0 7759 19773zm-8854 -15018c-42,-146 -105,-355 -188,-620 -79,-266 -141,-553 -188,-851l-62 0c-47,319 -110,611 -188,882 -73,271 -146,495 -224,678l-2384 6638 5747 0 -2513 -6727z"/>
   <path class="fil5" d="M107535 132187c0,2103 313,3911 939,5423 626,1513 1495,2764 2572,3720 1095,973 2382,1686 3859,2138 1478,469 3059,695 4763,695 1634,0 3198,-174 4727,-538 1530,-348 2886,-766 4033,-1252 469,-1182 834,-2503 1078,-3963 226,-1460 347,-3094 347,-4902 0,-2312 -278,-4311 -834,-6031 -573,-1721 -1338,-3164 -2329,-4329 -974,-1182 -2156,-2050 -3511,-2624 -1356,-574 -2851,-869 -4485,-869 -1669,0 -3181,278 -4554,834 -1390,574 -2555,1391 -3528,2451 -956,1078 -1721,2381 -2260,3928 -539,1548 -817,3320 -817,5319zm-10220 713c0,-3060 504,-5875 1529,-8482 1009,-2591 2468,-4833 4346,-6745 1895,-1894 4136,-3372 6779,-4449 2625,-1061 5527,-1600 8725,-1600 3390,0 6397,522 9004,1548 2608,1043 4815,2520 6588,4466 1790,1930 3146,4277 4067,7023 939,2746 1408,5823 1408,9212 0,3129 -556,6536 -1686,10256 -1112,3719 -2660,7543 -4641,11454 -1999,3929 -4345,7839 -7057,11733 -2711,3911 -5684,7596 -8899,11055l-11507 0c2103,-2382 4120,-4763 6066,-7127 1930,-2381 3737,-4728 5423,-7057 1669,-2329 3181,-4624 4520,-6883 1355,-2260 2450,-4415 3285,-6501 -973,278 -2104,504 -3355,695 -1252,192 -2659,278 -4224,278 -2851,0 -5527,-399 -7996,-1217 -2485,-816 -4640,-2033 -6465,-3650 -1843,-1598 -3286,-3580 -4328,-5927 -1061,-2329 -1582,-5040 -1582,-8082z"/>
  </g>
 </g>
</svg>
