<?xml version="1.0" encoding="UTF-8"?>
<!DOCTYPE svg PUBLIC "-//W3C//DTD SVG 1.1//EN" "http://www.w3.org/Graphics/SVG/1.1/DTD/svg11.dtd">
<!-- Creator: CorelDRAW X7 -->
<svg xmlns="http://www.w3.org/2000/svg" xml:space="preserve" width="24px" height="22px" version="1.1" style="shape-rendering:geometricPrecision; text-rendering:geometricPrecision; image-rendering:optimizeQuality; fill-rule:evenodd; clip-rule:evenodd"
viewBox="0 0 240000 216000"
 xmlns:xlink="http://www.w3.org/1999/xlink">
 <defs>
  <style type="text/css">
   <![CDATA[
    .str2 {stroke:#C93600;stroke-width:304.8}
    .str4 {stroke:#DC3C00;stroke-width:304.8}
    .str5 {stroke:#DC3C00;stroke-width:304.8}
    .str3 {stroke:#F1DB8F;stroke-width:304.8}
    .str1 {stroke:#FEC200;stroke-width:304.8}
    .str0 {stroke:#FECE01;stroke-width:304.8}
    .fil4 {fill:none}
    .fil3 {fill:none;fill-rule:nonzero}
    .fil5 {fill:#DC3C00}
    .fil1 {fill:#FEC200}
    .fil0 {fill:#FECE01}
    .fil2 {fill:#C93600;fill-rule:nonzero}
    .fil6 {fill:#DC3C00;fill-rule:nonzero}
   ]]>
  </style>
 </defs>
 <g id="Camada_x0020_1">
  <metadata id="CorelCorpID_0Corel-Layer"/>
  <g id="_919012869712">
   <path class="fil0 str0" d="M120368 2594c-176,-10 -530,140 -10724,4499 -10199,4359 -30248,12928 -45219,18987 -14971,6054 -24875,9604 -29674,11524 -4805,1919 -4510,2220 -4065,11233 440,9014 1035,26752 4006,43380 2970,16622 8322,32140 14676,44999 6354,12858 13716,23051 21980,33175 8257,10123 17416,20172 25952,27599 8532,7426 16441,12230 20704,14633 4257,2402 4879,2402 5056,2032 172,-370 -102,-1115 -590,-36462 -493,-35353 -1212,-105307 -1565,-140370 -359,-35063 -365,-35223 -537,-35229z"/>
   <path class="fil1 str1" d="M120370 2594c176,-12 532,134 10769,4390 10243,4256 30378,12620 45409,18527 15032,5901 24972,9350 29790,11216 4824,1865 4532,2153 4178,11175 -348,9018 -763,26766 -3564,43429 -2802,16663 -7996,32234 -14219,45156 -6223,12923 -13481,23190 -21641,33397 -8155,10207 -17211,20348 -25275,27857 -8064,7503 -15131,12369 -18810,14905 -3680,2537 -3967,2733 -4119,2595 -146,-143 -151,-621 -575,-36062 -425,-35446 -1273,-105846 -1696,-141131 -423,-35286 -419,-35447 -247,-35454z"/>
   <g>
    <path class="fil2" d="M64204 189088l-63369 0 23764 -20601 -23764 -20596 47528 0 15841 41197zm0 -10295l0 10295 -15841 -10295 15841 0zm126743 -30902l47528 0 -23764 20596 23764 20601 -63368 0 15840 -41197zm0 30902l-15840 10295 0 -10295 15840 0zm-142584 -41197l142584 0 0 41197 -142584 0 0 -41197z"/>
    <path id="1" class="fil3 str2" d="M64204 189088l-63369 0 23764 -20601 -23764 -20596 47528 0m15841 30902l0 10295 -15841 -10295m142584 -30902l47528 0 -23764 20596 23764 20601 -63368 0m15840 -10295l-15840 10295 0 -10295m-126744 -41197l142584 0 0 41197 -142584 0 0 -41197z"/>
   </g>
   <path class="fil4 str3" d="M120058 14782c-794,70 -1872,419 -12167,4724 -10301,4306 -29825,12569 -43048,18178 -13223,5603 -20145,8542 -23684,10048 -3539,1502 -3689,1566 -3759,1727 -75,156 -70,408 -16,3394 53,2987 155,8709 574,15497 418,6783 1147,14628 2332,22060 1180,7432 2804,14450 5384,22183 2579,7727 6112,16177 9791,23437 3673,7255 7491,13320 11453,18891 3963,5566 8065,10633 13583,16510 5512,5877 12435,12558 18129,17347 5695,4788 10162,7678 13610,9630 3447,1946 5876,2960 8402,2804 2526,-161 5148,-1480 9394,-4273 4247,-2794 10130,-7057 16087,-12312 5957,-5255 11990,-11507 16703,-16810 4713,-5303 8097,-9657 12017,-15577 3914,-5920 8354,-13405 11695,-19920 3335,-6515 5560,-12065 7517,-18119 1952,-6053 3625,-12606 4858,-18847 1228,-6242 2017,-12167 2574,-18875 558,-6708 890,-14194 1046,-18735 150,-4542 129,-6135 113,-7041 -17,-906 -17,-1121 -102,-1265 -86,-145 -252,-220 -8188,-3663 -7936,-3442 -23648,-10257 -37026,-15925 -13379,-5673 -24425,-10199 -30200,-12564 -5780,-2364 -6284,-2573 -7072,-2504z"/>
   <polygon class="fil5 str4" points="48365,137216 190945,137216 190945,178793 48365,178793 "/>
   <path class="fil6 str5" d="M104544 91137c0,4255 620,8131 1838,11607 1239,3496 2977,6493 5215,8990 2237,2498 4935,4416 8071,5794 3137,1358 6613,2038 10429,2038 3556,0 7072,-460 10568,-1399 3497,-919 6833,-2257 10029,-3995l0 10368c-2916,1559 -6213,2738 -9829,3536 -3636,800 -7592,1199 -11887,1199 -5354,0 -10269,-939 -14724,-2817 -4475,-1858 -8311,-4475 -11548,-7831 -3216,-3357 -5714,-7372 -7492,-12027 -1778,-4675 -2657,-9809 -2657,-15423 0,-5794 959,-11108 2877,-15963 1898,-4854 4556,-9050 7932,-12546 3376,-3516 7372,-6253 12007,-8231 4615,-1978 9649,-2957 15063,-2957 1838,0 3696,100 5574,320 1878,220 3696,499 5494,879 1799,379 3517,799 5135,1279 1618,499 3097,1038 4415,1618l0 10288c-1358,-579 -2877,-1178 -4555,-1758 -1678,-579 -3416,-1098 -5215,-1538 -1798,-460 -3636,-819 -5494,-1099 -1878,-259 -3696,-399 -5454,-399 -3656,0 -7052,719 -10208,2137 -3137,1419 -5854,3437 -8152,6054 -2297,2617 -4115,5773 -5434,9469 -1338,3716 -1998,7852 -1998,12407z"/>
  </g>
 </g>
</svg>
