<?xml version="1.0" encoding="UTF-8"?>
<!DOCTYPE svg PUBLIC "-//W3C//DTD SVG 1.1//EN" "http://www.w3.org/Graphics/SVG/1.1/DTD/svg11.dtd">
<!-- Creator: CorelDRAW X7 -->
<svg xmlns="http://www.w3.org/2000/svg" xml:space="preserve" width="84666.7px" height="67027.8px" version="1.1" style="shape-rendering:geometricPrecision; text-rendering:geometricPrecision; image-rendering:optimizeQuality; fill-rule:evenodd; clip-rule:evenodd"
viewBox="0 0 -2147483648 -2147483648"
 xmlns:xlink="http://www.w3.org/1999/xlink">
 <defs>
  <style type="text/css">
   <![CDATA[
    .str0 {stroke:#E6E7E8;stroke-width:1.49892e+007}
    .str3 {stroke:#D2D3D5;stroke-width:1.49892e+007}
    .str1 {stroke:#D2D3D5;stroke-width:1.49892e+007}
    .str2 {stroke:#BDBFC1;stroke-width:1.49892e+007}
    .fil0 {fill:#E6E7E8}
    .fil3 {fill:#D2D3D5}
    .fil1 {fill:#D2D3D5}
    .fil2 {fill:#BDBFC1}
   ]]>
  </style>
 </defs>
 <g id="Camada_x0020_1">
  <metadata id="CorelCorpID_0Corel-Layer"/>
  <g id="_522730967328">
   <path class="fil0 str0" d="M26253637 -2147483648c-2945384,0 -3177717,0 -6797616,0 -3619899,0 -10619870,0 -8618808,0 2001063,0 13010652,0 26485970,0 13467823,0 29393880,0 71633531,0 42239650,0 110785400,0 197408161,0 86622761,0 191330028,0 355102357,0 163772328,0 386617213,0 573472956,0 186863238,0 337737334,0 457373874,0 119644035,0 208050514,0 327439732,0 119389219,0 127729854,0 127729854,0 0,0 0,0 0,0 0,0 0,0 0,0 0,0 0,-108326295 0,-201993994 0,-93667699 0,-166447906 0,-233060045 0,-66619634 0,-127086188 0,-162558201 0,-35472013 0,-45956980 0,-53676433 0,-7719454 0,-12680889 0,-14329704 0,-1656310 0,0 0,-4953941 0,-4961435 0,-16533121 0,-39661503 0,-23135877 0,-57843439 0,-87746953 0,-29903514 0,-55010475 0,-93015668 0,-38005193 0,-88916113 0,-150604290 0,-61695671 0,-134168599 0,-246535362 0,-112366764 0,-264627364 0,-376716827 0,-112089463 0,-184007789 0,-250432563 0,-66432268 0,-127370983 0,-165031424 0,-37667935 0,-52065091 0,-50064028 0,2001062 0,20400342 0,85925761 0,65525420 0,178184474 0,322365879 0,144173910 0,319877665 0,474394144 0,154516479 0,287838187 0,393422324 0,105576643 0,183415715 0,267115576 0,83692366 0,173245522 0,225250656 0,51997639 0,66447257 0,79900091 0,13452834 0,25908885 0,33410994 0,7494615 0,10027795 0,42636865 0,32609071 0,95301526 0,155962940 0,49995706 0,49995706 0,49995706 0,0 0,0 0,0 0,0 0,0 0,0 0,0 0,0 0,0 0,0 0,0 0,0 0,0 0,0 0,0 0,0 0,0 0,0 0,0 0,0 0,0 0,0 0,0 0,0 0,0 0,0 0,0 0,0 0,0 0,0 0,0 0,0 0,0 0,0 0,0 0,0 0,0 0,0 0,0 0,0 0,0 0,0 0,0 0,0 -62107004,0 -117987725,0 -277090908,0 -418611725,0 -141520816,0 -265451771,0 -365160130,0 -99700864,0 -175164144,0 -340555309,0 -165391165,0 -420710217,0 -589121712,0 -168411496,0 -249922929,0 -293504116,0 -43581187,0 -49232126,0 -52170015,0z"/>
   <path class="fil1 str1" d="M2015152101 -2147483648c76235224,0 132331547,0 132331547,0 0,0 0,0 0,0 0,0 0,0 0,0 0,0 0,0 0,0 0,0 0,0 0,0 0,0 0,-131139903 0,-412967409 0,-281834999 0,-559517982 0,-717407038 0,-157889056 0,-195991679 0,-215035496 0,-19051311 0,-19051311 0,131777817 0,150829128 0,452479890 0,777011712 0,324531822 0,436620414 0,436620414 0,0 0,0 0,0 0,0 0,0 0,0 0,0 0,0 0,0 0,0 0,0 0,0 0,0 0,0 0,0 0,0 0,0 0,0 0,0 0,0 0,0 0,0 0,0 -61297586,0 -124830308,0 -147261691,0 -71033961,0z"/>
   <path class="fil2 str2" d="M38777138 -2147483648c322269,0 1558880,0 58585406,0 57026527,0 169835473,0 381153639,0 211325661,0 521168038,0 703347141,0 182186598,0 236717417,0 327454722,0 90737304,0 217673600,0 336650614,0 118977014,0 229994748,0 301514988,0 0,0 0,0 0,0 0,0 0,0 0,0 0,0 0,0 0,0 0,0 0,0 0,0 0,0 0,0 0,0 0,0 0,0 0,0 0,0 0,0 0,0 0,0 0,0 0,0 0,0 0,0 0,0 0,0 0,0 0,0 0,0 0,0 0,0 0,0 0,0 0,0 0,0 0,-12904856 0,-61949617 0,-49052256 0,-86008203 0,-104482429 0,-18481721 0,-18481721 0,-4923962 0,13550264 0,40658287 0,83182733 0,42516951 0,88173275 0,88173275 0,0 0,0 0,0 0,0 0,0 0,0 0,0 0,0 0,0 0,0 0,0 0,0 0,0 0,0 0,0 0,0 0,0 0,0 0,0 0,0 0,0 0,0 0,0 0,0 0,0 0,0 0,0 0,0 0,0 0,0 0,0 0,0 0,0 0,0 0,0 0,0 0,0 0,0 0,0 0,0 0,0 0,0 0,0 0,0 0,0 0,0 0,0 0,0 0,0 0,0 0,0 0,0 0,0 0,0 0,0 0,0 0,0 0,0 0,0 0,0 0,0 0,0 0,0 0,0 0,0 0,0 0,0 0,0 0,0 0,0 0,0 0,0 0,0 0,0 0,0 0,0 0,0 0,0 0,0 0,0 0,0 0,0 0,0 0,0 0,0 0,0 0,0 0,0 0,0 0,0 0,0 0,0 0,0 0,0 0,0 0,0 0,0 0,0 0,0 0,0 0,0 0,0 0,0 0,0 0,0 0,0 0,0 0,0 0,0 0,0 0,0 0,0 0,0 0,0 0,0 0,0 0,0 0,0 0,0 0,0 -41916511,0 -145004941,0 -197129989,0 -52117553,0 -53271724,0 -54133605,0 -861880,0 -1438966,0 -3754802,0 -2308341,0 -6347939,0 -10822224,0 -4466791,0 -9360774,0 -21344664,0 -11976395,0 -31042695,0 -60474049,0 -29423859,0 -69212770,0 -108589478,0 -39369213,0 -78318727,0 -111055206,0 -32736478,0 -59252427,0 -88151662,0 -28899236,0 -60174265,0 -76347644,0 -16173379,0 -17245109,0 -19163731,0 -1918621,0 -4684134,0 -48520138,0 -43836003,0 -128735003,0 -172571006,0 -43828509,0 -46594022,0 -48205365,0 -1611342,0 -2068513,0 -4759080,0 -2683072,0 -7592045,0 -12658405,0 -5058865,0 -10260128,0 -22446372,0 -12178750,0 -31342480,0 -56119678,0 -24777197,0 -55167861,0 -86780148,0 -31612286,0 -64446195,0 -99468531,0 -35022336,0 -72240595,0 -103448172,0 -31207577,0 -56404473,0 -74766280,0 -18361807,0 -29881030,0 -36678646,0 -6797616,0 -8858635,0 -11092030,0 -2233396,0 -4624178,0 -24147650,0 -19515978,0 -56164645,0 -104212623,0 -48047977,0 -107502758,0 -165211294,0 -57708536,0 -113663332,0 -157199551,0 -43536219,0 -74653861,0 -94004957,0 -19358591,0 -26965625,0 -31065180,0 -4099554,0 -4706618,0 -4384350,0z"/>
   <circle class="fil3 str3" cx="-2147483648" cy="-2147483648" r="104100203"/>
   <circle class="fil3 str3" cx="-2147483648" cy="-2147483648" r="104100203"/>
   <circle class="fil3 str3" cx="-2147483648" cy="-2147483648" r="104100203"/>
   <circle class="fil3 str3" cx="-2147483648" cy="-2147483648" r="104100203"/>
   <circle class="fil3 str3" cx="-2147483648" cy="-2147483648" r="104100203"/>
   <circle class="fil3 str3" cx="-2147483648" cy="-2147483648" r="104100203"/>
   <circle class="fil3 str3" cx="1973077332" cy="-2147483648" r="104100203"/>
   <circle class="fil3 str3" cx="1696391133" cy="-2147483648" r="104100203"/>
  </g>
 </g>
</svg>
