<?xml version="1.0" encoding="UTF-8"?>
<!DOCTYPE svg PUBLIC "-//W3C//DTD SVG 1.1//EN" "http://www.w3.org/Graphics/SVG/1.1/DTD/svg11.dtd">
<!-- Creator: CorelDRAW X7 -->
<svg xmlns="http://www.w3.org/2000/svg" xml:space="preserve" width="84666.7px" height="95250px" version="1.1" style="shape-rendering:geometricPrecision; text-rendering:geometricPrecision; image-rendering:optimizeQuality; fill-rule:evenodd; clip-rule:evenodd"
viewBox="0 0 -2147483648 -2147483648"
 xmlns:xlink="http://www.w3.org/1999/xlink">
 <defs>
  <style type="text/css">
   <![CDATA[
    .str5 {stroke:#E6E7E8;stroke-width:8.60213e+006}
    .str2 {stroke:#FCCD03;stroke-width:8.60213e+006}
    .str3 {stroke:#FEC200;stroke-width:8.60213e+006}
    .str0 {stroke:#FECE01;stroke-width:8.60213e+006}
    .str1 {stroke:#FFE201;stroke-width:8.60213e+006}
    .str4 {stroke:#FFE201;stroke-width:8.60213e+006}
    .fil11 {fill:#E6E7E8}
    .fil7 {fill:#011A33}
    .fil6 {fill:#334A63}
    .fil9 {fill:#EA9805}
    .fil3 {fill:#F7AF34}
    .fil4 {fill:#FCCD03}
    .fil10 {fill:#FCE303}
    .fil0 {fill:#FEC200}
    .fil5 {fill:#FEC200}
    .fil1 {fill:#FECE01}
    .fil2 {fill:#FFE201}
    .fil8 {fill:#FFE201}
   ]]>
  </style>
 </defs>
 <g id="Camada_x0020_1">
  <metadata id="CorelCorpID_0Corel-Layer"/>
  <g id="_523076731744">
   <path class="fil0" d="M-2147483648 -2147483648l0 0 0 0c0,0 0,0 0,0 0,0 0,0 0,0 0,0 0,0 0,0l0 0c0,0 0,0 0,0l0 0c0,0 0,0 0,0 0,0 0,0 0,0l0 0c0,0 0,0 0,0l0 0c0,0 0,0 0,0 0,0 0,0 0,0l0 0c0,0 0,0 0,0 0,0 0,0 0,0 0,0 0,0 0,0l0 0c0,0 0,0 0,0 0,0 0,0 0,0 0,0 0,0 0,0 0,0 0,0 0,0l0 0c0,0 0,0 0,0 0,0 0,0 0,0 0,0 0,0 0,0l0 0c0,0 0,0 0,0l0 0c0,0 0,0 0,0 0,0 0,0 0,0 0,0 0,0 0,0l0 0c0,0 0,0 0,0 0,0 0,0 0,0 0,0 0,0 0,0l0 0c0,0 0,0 0,0 0,0 0,-749907918 0,-1022410406l0 -227425955c0,222560444 0,156768800 0,248942577 0,-199226311 0,-95278222 0,-236389333 0,-30897688 0,-54480177 0,-16154400l0 257014133c0,-74709866 0,-60429422 0,-60429422l0 -237698844 0 0 0 -189698488c0,0 0,-18231556 0,20974755l0 -5994400 0 -126830666c0,66751200 0,40831911 0,57821689 0,-95583022 0,-140151556 0,-193051289 0,-65475555 0,48169689 0,-35006844 0,463465332 0,1143959553 0,1631379907l0 134956986c0,0 0,0 0,0 0,0 0,0 0,0 0,0 0,0 0,0z"/>
   <path class="fil1 str0" d="M-2147483648 530476177c0,269635110 0,614770309 0,911984175 0,705023296 0,705023296 0,705023296 0,0 0,0 0,0 0,0 0,0 0,0l0 0 0 0c0,0 0,0 0,0 0,0 0,0 0,0 0,0 0,0 0,0l0 -132778230c0,-487409066 0,-1167903287 0,-1631379908 0,-19812000 0,-58882844 0,-62551733 0,-2641600 0,28391556 0,25772533 0,-2856089 0,-53520622 0,-29610755 0,30175200 0,168543111 0,213540622z"/>
   <path class="fil2 str1" d="M2131161595 697506576c-109795733,201867911 16322053,1449977072 16322053,1449977072l0 0c0,0 0,0 0,0 0,0 0,0 0,0 0,0 0,0 0,0l0 0 0 0 0 0c0,0 0,0 0,0 0,0 0,0 0,0 0,0 0,0 0,0l0 0 0 0c0,0 0,0 0,0 0,0 0,0 0,0 0,0 0,0 0,-707213340 0,-131380089 0,-1082897953 0,-1057893064 0,17768711 0,-6457245 0,-9132711 0,-2856089 0,38506399 0,6095999 0,119188089 0,388507111 0,552828177 0,-107978222 0,-131210755 -16322053,-234662133z"/>
   <polygon class="fil3" points="-2147483648,-2147483648 -2147483648,-2147483648 -2147483648,-2147483648 -2147483648,-2147483648 "/>
   <path class="fil4 str2" d="M-2147483648 -2147483648c0,0 0,0 0,0 0,0 0,0 0,0 0,0 -181659119,0 -333280185,0 -551800888,0 -1262617064,-844486229 -1284867464,-1356121250l1216072975 5475111c55360711,127745067 105257600,467021333 159421688,645272888 60745511,200027822 133558845,395980355 199892356,576196176 42760630,129177075 42760630,129177075 42760630,129177075zm-2069059737 -1603573694c30288089,-136640710 1794933,-35119733 32218489,-83323288l1629686574 1016000c-78412622,81844444 9211733,23774400 -95018578,67665599 -96305511,40515823 -1173242930,-3488266 -1435653152,24440445 55146222,341782399 418546844,1191293864 625562487,1509516352l207580089 84258586c61953422,0 28391555,0 81381600,0 -43371911,0 -15014222,0 -89137067,0 353319644,0 1093012798,0 1112439295,0 0,0 0,0 0,0 0,0 0,0 0,0 0,0 0,0 0,0l0 0 0 0c0,0 0,0 0,0 0,0 0,0 0,0 0,0 0,0 0,0l0 0c0,0 -126117786,-1248109161 -16322053,-1449977072 -100414666,-202263022 -211418310,-158823377 -329116266,-277503466 145863733,-55360711 131481689,-48768000 232607555,-135015111l-292066132 9302045 -49682400 144960622 -1630984797 7620000 16504356 97039288z"/>
   <path class="fil5 str3" d="M-2147483648 365093955c0,5012266 0,-19179822 0,18231555 0,83187822 0,-32647466 0,32828089 0,52899733 0,97468267 0,193051289 0,-16989778 0,8929511 0,-57821689l0 126830666 0 5994400c0,-39206311 0,-20974755 0,-20974755l0 189698488 0 0 0 237698844c0,0 0,-14280444 0,60429422l0 -257014133c0,-38325777 0,-14743288 0,16154400 0,141111111 0,37163022 0,236389333 0,-92173777 0,-26382133 0,-248942577l0 227425955c0,-28448000 0,-17904178 0,-68862222l0 -257160888 0 -12304889c0,383743199 0,1293864708 0,1360738405 0,0 0,0 0,0 0,0 0,0 0,0l0 0c0,0 0,0 0,0 0,0 0,0 0,0 0,0 0,0 0,0l0 0c0,0 0,0 0,0 0,0 0,0 0,0 0,0 0,0 0,0l0 0c0,0 0,0 0,0l0 0c0,0 0,0 0,0 0,0 0,0 0,0 0,0 0,0 0,0l0 0c0,0 0,0 0,0 0,0 0,0 0,0 0,0 0,0 0,0l0 0c0,0 0,0 0,0 0,0 0,0 0,0 0,0 0,0 0,0 0,-219025341 0,-628823296 0,-1069372184l0 -352326221c0,-159986133 0,-63262933 0,-111669689 0,-60090755 0,-20737689 0,-27860978l0 -145062221 0 -128490133c0,-53881867 0,-1377245 0,-11774312 0,-361244 0,-12869333 0,-10622844 0,282865688 0,194789777 0,166962666 0,-40865777 0,-121084622 0,-92173777z"/>
   <path class="fil6" d="M-2147483648 -2147483648l-5100897 0c5100897,0 5100897,0 5100897,0 0,0 0,0 0,0l0 0c0,0 0,0 0,0l0 0c0,0 0,0 0,0l0 0z"/>
   <path class="fil7" d="M-2147483648 -2147483648c0,0 0,0 0,0l0 0 0 0 0 0 0 0c0,0 0,0 0,0l0 0c0,0 0,0 0,0z"/>
   <path class="fil8 str4" d="M-2147483648 -2147483648c0,0 0,0 0,0 0,-194618763 0,-1203788983 0,-1695815205l0 -10476088 0 145062221c0,7123289 0,-32229777 0,27860978 0,48406756 0,-48316444 0,111669689l0 352326221c0,440548888 0,850346843 0,1069372184 0,0 0,0 0,0 0,0 0,0 0,0 0,0 0,0 0,0l0 0z"/>
   <path class="fil9" d="M-2147483648 -2147483648l0 0 0 0 0 0 0 0zm0 0c0,0 0,0 0,0 0,0 0,0 0,0l0 0 0 0 0 0 0 0 0 0 0 0z"/>
   <path class="fil10" d="M78423911 543909954c43970222,483107999 646074399,1603573694 956620442,1603573694 74122845,0 45765156,0 89137067,0 -52990045,0 -19428178,0 -81381600,0l-207580089 -84258586c-207015643,-318222488 -570416265,-1167733953 -625562487,-1509516352 262410222,-27928711 1339347641,16075378 1435653152,-24440445 104230311,-43891199 16605956,14178845 95018578,-67665599l-1629686574 -1016000c-30423556,48203555 -1930400,-53317422 -32218489,83323288z"/>
   <path class="fil11 str5" d="M2034652884 284987999c-101125866,86247111 -86743822,79654400 -232607555,135015111 117697956,118680089 228701600,75240444 329116266,277503466 16322053,103451378 16322053,126683911 16322053,234662133 0,-164321066 0,-295486666 0,-414674755l0 -87229244 0 -99726044c0,-18084800 0,-27781956 0,-40233600 0,-85964889 0,-172132977 0,-317906399 -2007742,136110133 0,210368444 -112830764,312589332z"/>
   <path class="fil4" d="M-2147483648 -2147483648c0,0 0,0 0,0 0,0 0,0 0,0l0 0 0 0z"/>
   <path class="fil1 str0" d="M-2147483648 -2147483648l0 0 0 0c0,0 0,0 0,0l0 0c0,0 0,0 0,0 0,0 0,0 0,0 0,0 0,0 0,0l0 0c0,0 0,0 0,0l0 0c0,0 0,0 0,0 0,0 0,0 0,0l0 0c0,0 0,0 0,0l0 0c0,0 0,0 0,0l0 0 0 0c0,0 0,0 0,0 0,0 0,0 0,0 0,0 0,0 0,0l0 0c0,0 0,0 0,0l0 0z"/>
  </g>
 </g>
</svg>
