<?xml version="1.0" encoding="UTF-8"?>
<!DOCTYPE svg PUBLIC "-//W3C//DTD SVG 1.1//EN" "http://www.w3.org/Graphics/SVG/1.1/DTD/svg11.dtd">
<!-- Creator: CorelDRAW X7 -->
<svg xmlns="http://www.w3.org/2000/svg" xml:space="preserve" width="24px" height="22px" version="1.1" style="shape-rendering:geometricPrecision; text-rendering:geometricPrecision; image-rendering:optimizeQuality; fill-rule:evenodd; clip-rule:evenodd"
viewBox="0 0 240000 216000"
 xmlns:xlink="http://www.w3.org/1999/xlink">
 <defs>
  <style type="text/css">
   <![CDATA[
    .str2 {stroke:#C93600;stroke-width:304.8}
    .str4 {stroke:#DC3C00;stroke-width:304.8}
    .str5 {stroke:#DC3C00;stroke-width:304.8}
    .str3 {stroke:#F1DB8F;stroke-width:304.8}
    .str1 {stroke:#FEC200;stroke-width:304.8}
    .str0 {stroke:#FECE01;stroke-width:304.8}
    .fil4 {fill:none}
    .fil3 {fill:none;fill-rule:nonzero}
    .fil5 {fill:#DC3C00}
    .fil1 {fill:#FEC200}
    .fil0 {fill:#FECE01}
    .fil2 {fill:#C93600;fill-rule:nonzero}
    .fil6 {fill:#DC3C00;fill-rule:nonzero}
   ]]>
  </style>
 </defs>
 <g id="Camada_x0020_1">
  <metadata id="CorelCorpID_0Corel-Layer"/>
  <g id="_918799344368">
   <path class="fil0 str0" d="M120103 1978c-177,-11 -531,139 -10724,4498 -10199,4360 -30249,12929 -45221,18988 -14971,6054 -24875,9604 -29674,11524 -4805,1920 -4510,2220 -4065,11234 440,9014 1035,26752 4006,43381 2970,16623 8322,32141 14676,45000 6355,12859 13717,23053 21980,33177 8258,10124 17417,20172 25954,27599 8531,7427 16441,12232 20703,14634 4258,2402 4880,2402 5057,2032 172,-370 -102,-1115 -590,-36463 -493,-35354 -1211,-105310 -1565,-140374 -360,-35064 -365,-35225 -537,-35230z"/>
   <path class="fil1 str1" d="M120104 1977c177,-12 533,134 10770,4390 10243,4256 30378,12621 45411,18528 15032,5901 24972,9351 29790,11216 4824,1865 4532,2153 4179,11176 -349,9018 -764,26767 -3565,43430 -2802,16663 -7996,32235 -14219,45158 -6224,12923 -13482,23191 -21642,33398 -8155,10207 -17211,20349 -25275,27858 -8065,7503 -15131,12369 -18811,14906 -3680,2536 -3968,2732 -4119,2594 -146,-143 -151,-621 -575,-36063 -424,-35447 -1274,-105849 -1696,-141136 -423,-35287 -419,-35448 -248,-35455z"/>
   <g>
    <path class="fil2" d="M63937 188478l-63370 0 23765 -20602 -23765 -20596 47529 0 15841 41198zm0 -10296l0 10296 -15841 -10296 15841 0zm126747 -30902l47529 0 -23765 20596 23765 20602 -63370 0 15841 -41198zm0 30902l-15841 10296 0 -10296 15841 0zm-142588 -41198l142588 0 0 41198 -142588 0 0 -41198z"/>
    <path id="1" class="fil3 str2" d="M63937 188478l-63370 0 23765 -20602 -23765 -20596 47529 0m15841 30902l0 10296 -15841 -10296m142588 -30902l47529 0 -23765 20596 23765 20602 -63370 0m15841 -10296l-15841 10296 0 -10296m-126747 -41198l142588 0 0 41198 -142588 0 0 -41198z"/>
   </g>
   <path class="fil4 str3" d="M119792 14166c-793,70 -1871,418 -12167,4724 -10301,4306 -29825,12569 -43048,18178 -13223,5604 -20146,8542 -23685,10049 -3540,1502 -3690,1566 -3759,1727 -75,155 -70,408 -17,3394 54,2987 156,8708 574,15497 418,6783 1148,14629 2333,22061 1180,7432 2804,14451 5384,22184 2579,7726 6113,16178 9791,23438 3673,7255 7491,13320 11454,18892 3963,5566 8065,10633 13583,16510 5512,5877 12435,12558 18130,17347 5694,4789 10161,7679 13609,9631 3448,1946 5877,2960 8403,2804 2525,-161 5148,-1480 9395,-4274 4246,-2794 10129,-7056 16086,-12312 5958,-5254 11990,-11507 16704,-16810 4714,-5304 8097,-9658 12017,-15578 3914,-5920 8354,-13406 11695,-19921 3335,-6515 5561,-12065 7518,-18119 1952,-6054 3625,-12606 4858,-18848 1228,-6242 2016,-12167 2574,-18876 558,-6708 890,-14194 1046,-18735 150,-4542 128,-6135 112,-7041 -16,-906 -16,-1121 -102,-1266 -85,-144 -252,-220 -8188,-3662 -7936,-3443 -23648,-10258 -37026,-15926 -13379,-5673 -24426,-10199 -30201,-12564 -5780,-2365 -6285,-2574 -7073,-2504z"/>
   <polygon class="fil5 str4" points="48098,136603 190682,136603 190682,178182 48098,178182 "/>
   <path class="fil6 str5" d="M156303 127584l-12347 0 -8470 -21697 -29210 0 -7871 21697 -12347 0 29389 -75760 11128 0 29728 75760zm-33924 -57539c-159,-559 -399,-1359 -719,-2378 -300,-1019 -539,-2117 -719,-3256l-240 0c-180,1219 -419,2337 -719,3376 -280,1039 -560,1898 -859,2597l-9131 25434 22017 0 -9630 -25773z"/>
  </g>
 </g>
</svg>
