<?xml version="1.0" encoding="UTF-8"?>
<!DOCTYPE svg PUBLIC "-//W3C//DTD SVG 1.1//EN" "http://www.w3.org/Graphics/SVG/1.1/DTD/svg11.dtd">
<!-- Creator: CorelDRAW X7 -->
<svg xmlns="http://www.w3.org/2000/svg" xml:space="preserve" width="24px" height="22px" version="1.1" style="shape-rendering:geometricPrecision; text-rendering:geometricPrecision; image-rendering:optimizeQuality; fill-rule:evenodd; clip-rule:evenodd"
viewBox="0 0 240000 216000"
 xmlns:xlink="http://www.w3.org/1999/xlink">
 <defs>
  <style type="text/css">
   <![CDATA[
    .str2 {stroke:#C93600;stroke-width:304.8}
    .str4 {stroke:#DC3C00;stroke-width:304.8}
    .str5 {stroke:#DC3C00;stroke-width:304.8}
    .str3 {stroke:#F1DB8F;stroke-width:304.8}
    .str1 {stroke:#FEC200;stroke-width:304.8}
    .str0 {stroke:#FECE01;stroke-width:304.8}
    .fil4 {fill:none}
    .fil3 {fill:none;fill-rule:nonzero}
    .fil5 {fill:#DC3C00}
    .fil1 {fill:#FEC200}
    .fil0 {fill:#FECE01}
    .fil2 {fill:#C93600;fill-rule:nonzero}
    .fil6 {fill:#DC3C00;fill-rule:nonzero}
   ]]>
  </style>
 </defs>
 <g id="Camada_x0020_1">
  <metadata id="CorelCorpID_0Corel-Layer"/>
  <g id="_137598648960">
   <path class="fil0 str0" d="M120368 2595c-176,-11 -530,139 -10724,4499 -10199,4359 -30248,12928 -45219,18987 -14971,6054 -24875,9603 -29674,11523 -4804,1920 -4509,2220 -4064,11234 439,9013 1035,26751 4005,43379 2971,16622 8322,32140 14676,44999 6354,12858 13717,23051 21980,33175 8258,10123 17416,20172 25952,27598 8532,7427 16441,12231 20704,14633 4257,2403 4879,2403 5056,2033 172,-370 -102,-1116 -590,-36463 -493,-35352 -1212,-105306 -1565,-140368 -360,-35063 -365,-35224 -537,-35229z"/>
   <path class="fil1 str1" d="M120370 2595c176,-13 532,134 10769,4389 10243,4256 30377,12620 45409,18527 15032,5902 24972,9351 29790,11216 4824,1866 4532,2153 4178,11176 -348,9017 -763,26766 -3565,43428 -2801,16663 -7995,32234 -14218,45156 -6223,12923 -13482,23190 -21642,33397 -8154,10207 -17210,20348 -25274,27857 -8064,7503 -15131,12369 -18810,14905 -3680,2536 -3967,2732 -4119,2594 -146,-143 -151,-620 -575,-36061 -425,-35446 -1273,-105845 -1696,-141131 -423,-35285 -419,-35446 -247,-35453z"/>
   <g>
    <path class="fil2" d="M64204 189088l-63368 0 23764 -20601 -23764 -20596 47528 0 15840 41197zm0 -10295l0 10295 -15840 -10295 15840 0zm126743 -30902l47528 0 -23764 20596 23764 20601 -63369 0 15841 -41197zm0 30902l-15841 10295 0 -10295 15841 0zm-142583 -41197l142583 0 0 41197 -142583 0 0 -41197z"/>
    <path id="1" class="fil3 str2" d="M64204 189088l-63368 0 23764 -20601 -23764 -20596 47528 0m15840 30902l0 10295 -15840 -10295m142583 -30902l47528 0 -23764 20596 23764 20601 -63369 0m15841 -10295l-15841 10295 0 -10295m-126742 -41197l142583 0 0 41197 -142583 0 0 -41197z"/>
   </g>
   <path class="fil4 str3" d="M120057 14783c-793,70 -1871,418 -12166,4724 -10301,4306 -29825,12569 -43047,18177 -13224,5604 -20146,8542 -23685,10049 -3539,1501 -3689,1566 -3759,1727 -75,155 -70,407 -16,3394 54,2986 156,8708 574,15496 418,6783 1147,14628 2332,22060 1180,7432 2805,14451 5384,22183 2579,7727 6113,16177 9791,23437 3673,7255 7491,13320 11454,18891 3962,5566 8064,10633 13582,16510 5512,5877 12435,12558 18129,17346 5695,4789 10162,7679 13610,9631 3447,1946 5876,2960 8402,2804 2526,-161 5148,-1480 9394,-4274 4247,-2793 10130,-7056 16087,-12311 5957,-5255 11989,-11507 16703,-16810 4713,-5303 8097,-9657 12016,-15577 3915,-5920 8354,-13405 11695,-19920 3335,-6515 5561,-12065 7518,-18119 1952,-6053 3625,-12606 4858,-18847 1228,-6242 2016,-12167 2574,-18875 557,-6708 890,-14193 1045,-18735 150,-4542 129,-6134 113,-7040 -16,-907 -16,-1121 -102,-1266 -86,-145 -252,-220 -8188,-3662 -7936,-3443 -23647,-10258 -37025,-15926 -13379,-5673 -24425,-10198 -30200,-12563 -5780,-2365 -6284,-2574 -7073,-2504z"/>
   <polygon class="fil5 str4" points="48366,137216 190945,137216 190945,178793 48366,178793 "/>
   <path class="fil6 str5" d="M129480 71879c0,-1398 -240,-2737 -700,-3995 -479,-1259 -1238,-2378 -2317,-3357 -1079,-979 -2457,-1738 -4155,-2317 -1699,-560 -3776,-839 -6234,-839 -1518,0 -2836,20 -3955,60 -1119,39 -2118,99 -3017,179l0 23015 4795 0c5074,0 8950,-1099 11607,-3276 2657,-2178 3976,-5334 3976,-9470zm4075 33983c0,-4096 -1378,-7132 -4155,-9070 -2757,-1958 -6853,-2937 -12287,-2937l-8011 0 0 25053c1259,120 2597,220 4076,279 1458,60 3076,80 4874,80 4875,0 8671,-1179 11408,-3536 2737,-2377 4095,-5654 4095,-9869zm11748 -380c0,3397 -560,6493 -1659,9310 -1118,2817 -2857,5234 -5214,7272 -2358,2018 -5374,3596 -9030,4735 -3636,1139 -7992,1698 -13066,1698 -1298,0 -2797,-20 -4495,-80 -1678,-60 -3396,-139 -5134,-239 -1739,-100 -3417,-220 -5015,-380 -1598,-160 -2957,-320 -4096,-480l0 -74598c2298,-180 5075,-340 8332,-439 3256,-100 6612,-140 10028,-140 3976,0 7532,419 10689,1259 3136,838 5773,2057 7951,3656 2158,1598 3816,3576 4935,5913 1139,2337 1698,5035 1698,8091 0,1978 -280,3856 -819,5594 -540,1738 -1299,3316 -2258,4755 -959,1458 -2098,2737 -3416,3875 -1339,1139 -2777,2058 -4335,2818 2077,499 4015,1258 5833,2237 1798,999 3396,2237 4735,3696 1359,1458 2418,3157 3177,5074 779,1898 1159,4036 1159,6373z"/>
  </g>
 </g>
</svg>
