<?xml version="1.0" encoding="UTF-8"?>
<!DOCTYPE svg PUBLIC "-//W3C//DTD SVG 1.1//EN" "http://www.w3.org/Graphics/SVG/1.1/DTD/svg11.dtd">
<!-- Creator: CorelDRAW X7 -->
<svg xmlns="http://www.w3.org/2000/svg" xml:space="preserve" width="297mm" height="420mm" version="1.1" style="shape-rendering:geometricPrecision; text-rendering:geometricPrecision; image-rendering:optimizeQuality; fill-rule:evenodd; clip-rule:evenodd"
viewBox="0 0 29700 42000"
 xmlns:xlink="http://www.w3.org/1999/xlink">
 <defs>
  <style type="text/css">
   <![CDATA[
    .str6 {stroke:#BE3E0D;stroke-width:40}
    .str7 {stroke:#F8771B;stroke-width:40}
    .str0 {stroke:#FEFEFE;stroke-width:20}
    .str1 {stroke:#373435;stroke-width:20}
    .str5 {stroke:#373435;stroke-width:20}
    .str2 {stroke:#373435;stroke-width:20}
    .str4 {stroke:#DC3C00;stroke-width:20}
    .str3 {stroke:#F8771B;stroke-width:20}
    .fil1 {fill:none}
    .fil0 {fill:#FEFEFE}
    .fil2 {fill:#373435}
    .fil5 {fill:#BE3E0D}
    .fil4 {fill:#DC3C00}
    .fil3 {fill:#F8771B}
   ]]>
  </style>
 </defs>
 <g id="Camada_x0020_1">
  <metadata id="CorelCorpID_0Corel-Layer"/>
  <g id="_76956363184">
   <polygon class="fil0 str0" points="3092,5462 7956,5462 7956,10641 3092,10641 "/>
   <g>
    <g>
     <polygon class="fil1 str1" points="3949,7538 4186,7538 4186,7867 3949,7867 "/>
     <polygon class="fil2 str2" points="3949,7538 4186,7538 4186,7867 3949,7867 "/>
     <polygon class="fil2 str2" points="3968,8671 4205,8671 4205,9000 3968,9000 "/>
     <polygon class="fil1 str1" points="7086,7538 6849,7538 6849,7867 7086,7867 "/>
     <polygon class="fil2 str2" points="7086,7538 6849,7538 6849,7867 7086,7867 "/>
     <polygon class="fil2 str2" points="7067,8671 6830,8671 6830,9000 7067,9000 "/>
     <path class="fil3 str3" d="M4801 5461c-5,-2 -12,0 -135,36 -124,36 -364,105 -485,141 -121,36 -123,37 -112,253 11,215 35,644 59,1149 24,506 49,1088 57,1499 9,412 1,652 -21,884 -22,232 -58,456 -79,613 -22,157 -30,248 -21,320 8,72 33,125 63,161 31,36 67,54 106,72 40,18 84,35 159,44 76,9 184,9 376,9 192,1 469,3 608,4 139,1 141,1 141,0 1,-1 1,-3 3,-767 1,-764 5,-2290 6,-3054 2,-764 2,-767 -2,-771 -4,-4 -13,-11 -46,-43 -34,-33 -93,-91 -197,-152 -104,-60 -254,-122 -340,-187 -86,-64 -109,-131 -121,-167 -13,-36 -15,-42 -19,-44z"/>
     <path class="fil4 str4" d="M6234 5461c4,-2 12,0 135,36 124,36 364,105 485,141 121,36 123,37 112,253 -11,215 -35,644 -59,1149 -24,506 -49,1088 -57,1499 -9,412 -1,652 21,884 21,232 57,456 79,613 22,157 29,248 21,320 -9,72 -33,125 -64,161 -30,36 -66,54 -106,72 -39,18 -83,35 -159,44 -75,9 -183,9 -375,9 -193,1 -469,3 -608,4 -139,1 -141,1 -142,0 0,-1 -1,-3 -2,-767 -2,-764 -5,-2290 -7,-3054 -1,-764 -1,-767 3,-771 4,-4 13,-11 46,-43 34,-33 93,-91 197,-152 104,-60 254,-122 340,-187 86,-64 109,-131 121,-167 12,-36 14,-42 19,-44z"/>
     <path class="fil1 str2" d="M4801 5461c-5,-2 -12,0 -135,36 -124,36 -364,105 -485,141 -121,36 -123,37 -112,253 11,215 35,644 59,1149 24,506 49,1088 57,1499 9,412 1,652 -21,884 -22,232 -58,456 -79,613 -22,157 -30,248 -21,320 8,72 33,125 63,161 31,36 67,54 106,72 40,18 84,35 159,44 76,9 184,9 376,9 192,1 469,3 608,4 139,1 141,1 141,0 1,-1 1,-3 3,-767 1,-764 5,-2290 6,-3054 2,-764 2,-767 -2,-771 -4,-4 -13,-11 -46,-43 -34,-33 -93,-91 -197,-152 -104,-60 -254,-122 -340,-187 -86,-64 -109,-131 -121,-167 -13,-36 -15,-42 -19,-44z"/>
     <path class="fil1 str5" d="M6234 5461c4,-2 12,0 135,36 124,36 364,105 485,141 121,36 123,37 112,253 -11,215 -35,644 -59,1149 -24,506 -49,1088 -57,1499 -9,412 -1,652 21,884 21,232 57,456 79,613 22,157 29,248 21,320 -9,72 -33,125 -64,161 -30,36 -66,54 -106,72 -39,18 -83,35 -159,44 -75,9 -183,9 -375,9 -193,1 -469,3 -608,4 -139,1 -141,1 -142,0 0,-1 -1,-3 -2,-767 -2,-764 -5,-2290 -7,-3054 -1,-764 -1,-767 3,-771 4,-4 13,-11 46,-43 34,-33 93,-91 197,-152 104,-60 254,-122 340,-187 86,-64 109,-131 121,-167 12,-36 14,-42 19,-44z"/>
     <path class="fil5 str5" d="M5514 5726c-4,-3 -13,-3 -45,-3 -31,0 -86,0 -166,-25 -80,-25 -185,-76 -274,-122 -88,-46 -160,-89 -196,-109 -35,-20 -34,-17 -23,23 12,40 33,116 68,184 34,68 82,128 136,177 55,49 116,88 184,121 67,32 141,58 195,70 54,12 87,11 104,11 18,-1 20,-1 20,-2 1,-1 1,-2 1,-54 0,-51 0,-153 0,-207 0,-54 0,-61 -4,-64z"/>
     <path class="fil5 str5" d="M5521 5726c4,-3 13,-3 44,-3 32,0 87,0 167,-25 80,-25 185,-76 273,-122 89,-46 161,-89 196,-109 36,-20 35,-17 24,23 -12,40 -34,116 -68,184 -35,68 -82,128 -136,177 -55,49 -116,88 -184,121 -68,32 -142,58 -195,70 -54,12 -87,11 -105,11 -17,-1 -19,-1 -20,-2 0,-1 0,-2 0,-54 0,-51 0,-153 0,-207 0,-54 0,-61 4,-64z"/>
     <line class="fil1 str6" x1="5517" y1="5735" x2="5517" y2= "6037" />
    </g>
    <line class="fil1 str7" x1="5513" y1="6070" x2="5520" y2= "10630" />
   </g>
  </g>
 </g>
</svg>
