<?xml version="1.0" encoding="UTF-8"?>
<!DOCTYPE svg PUBLIC "-//W3C//DTD SVG 1.1//EN" "http://www.w3.org/Graphics/SVG/1.1/DTD/svg11.dtd">
<!-- Creator: CorelDRAW X7 -->
<svg xmlns="http://www.w3.org/2000/svg" xml:space="preserve" width="24px" height="26px" version="1.1" style="shape-rendering:geometricPrecision; text-rendering:geometricPrecision; image-rendering:optimizeQuality; fill-rule:evenodd; clip-rule:evenodd"
viewBox="0 0 2400000 2569493"
 xmlns:xlink="http://www.w3.org/1999/xlink">
 <defs>
  <style type="text/css">
   <![CDATA[
    .str0 {stroke:#017046;stroke-width:3754.47}
    .str1 {stroke:#036628;stroke-width:3754.47}
    .fil3 {fill:#009A3C}
    .fil4 {fill:#017046}
    .fil9 {fill:#0267CC}
    .fil5 {fill:#027536}
    .fil7 {fill:#036628}
    .fil11 {fill:#069839}
    .fil10 {fill:#1069DD}
    .fil12 {fill:#D9D655}
    .fil2 {fill:#E5BD01}
    .fil1 {fill:#F7D801}
    .fil8 {fill:#F7FAF7}
    .fil6 {fill:#F8D80A}
    .fil0 {fill:#FEF202}
   ]]>
  </style>
 </defs>
 <g id="Camada_x0020_1">
  <metadata id="CorelCorpID_0Corel-Layer"/>
  <g id="_523076726560">
   <path class="fil0" d="M290621 295243c14949,52636 42196,106500 61496,159993l120147 322101c14644,41531 45005,132495 50809,169966l10726 114240c7800,18551 5593,411562 1350,436346 39831,7218 200071,54213 224002,79873 33889,-32440 96177,5031 150656,2296 239774,-12017 -44570,-41663 185989,4287 16181,10697 96542,28513 98237,52395 13028,-18383 1400,-825859 1400,-883861 0,-80647 0,-161299 0,-241951 0,-48838 6346,-201007 -1917,-237970 -70128,-12658 -140324,-44576 -197794,-86102 -41226,-29789 -113068,-100755 -130633,-151341 -49996,18575 -98321,42738 -149558,60648 -51597,18038 -104578,34302 -155850,52454 -63766,22581 -242783,87008 -269060,146626z"/>
   <path class="fil0" d="M535046 1496056l103 1833 -448 109840c1769,161033 512,323111 483,484242 -20,123735 -3489,304654 -133,425758 685,24670 4089,21605 23473,31676 82913,22837 190576,19930 277135,21748l201441 -113 151819 -448c15299,-21758 6514,-101854 6514,-132377 0,-134846 -4893,-886084 1394,-937666l-1646 168c-20989,-379 -46719,-2434 -63786,-14205 -14501,-10007 -23985,-30395 -35047,-37170 -1700,24113 1784,30267 -11864,51395l-80243 -3834 -4070 -35307c-32293,22758 -39457,43230 -90245,37456 -38521,-4376 -53267,-23808 -75070,-47971 -33637,31243 -61978,50740 -113274,48552 -59417,-2533 -81855,-39402 -104199,-57056 -25582,24015 -40826,47941 -82337,53479z"/>
   <path class="fil1" d="M1402041 543057c28558,-21856 35220,-40540 73809,-62264 73138,-41176 137309,-39008 208437,1818 35889,20601 44063,37722 71566,60821 -8327,34662 -22492,58401 -29188,100262 -5775,36076 -2277,85283 -12993,116467 -20453,59524 -103603,118078 -136565,117329 -20684,-468 -69463,-31287 -83515,-45541 -78001,-79090 -46369,-97217 -62954,-191906 -6917,-39486 -20472,-63565 -28597,-96986zm-196375 -273292l-12150 3193c8263,36963 1917,189132 1917,237970 0,80652 0,161304 0,241951 310,43378 11716,851854 -1400,883861 8307,171542 87284,76257 103869,53370 126454,-10011 271662,-161555 312847,-97286 23818,-44762 116891,4868 218764,-3784l9209 -523747c-1389,-46971 15787,-94916 21744,-139837 29311,-101829 66324,-222272 112313,-318804 22704,-47646 45310,-102282 65408,-151416 14382,-35160 46349,-120892 62264,-148385 -9037,-52621 -202786,-127011 -256033,-146838 -48882,-18206 -97995,-38742 -145616,-58756 -28824,-12111 -119818,-59500 -140241,-61722 -46379,94029 -243754,215990 -352895,230230z"/>
   <path class="fil1" d="M1196827 1500549c-6287,51582 -1394,802820 -1394,937666 0,30523 8785,110619 -6514,132377 39836,-404 225992,-6026 249130,1911 12199,-5636 227919,-12899 247376,-8095 2247,-1202 134875,-20167 146178,-20447l4050 -7278 -64 -256969 -577 -133490 -261 -63289 -163 -67324 227 -96040c-6336,-20896 -7445,-383054 -2730,-419810 -27355,-907 -60352,-8933 -79361,-29400 -12781,18151 -330,28479 -33627,30494 -18157,1099 -39703,1517 -56150,-3750 -27537,-28015 -47867,-160013 -73576,-179662 -45093,18605 -5849,102371 -24813,174760 -19093,10642 -44207,11460 -66502,7967 -29390,-4607 -24325,-25330 -25340,-50217 -21492,13737 -33411,33721 -64683,43580 -43236,13633 -55593,2341 -91950,2602l-4119 72847c-24591,13845 -62959,14412 -87678,-153 -7051,-28281 -1380,-44802 -4819,-71295l-22640 3015z"/>
   <path class="fil1" d="M3784 987597c24044,2675 79445,22103 107603,29336 37461,9627 79095,17856 117586,24384 78947,13382 168650,27853 248416,31529l27084 -94862c389,-1532 4163,-16008 4336,-16397 9115,-20660 -1661,-10209 14264,-14284 -5804,-37471 -36165,-128435 -50809,-169966l-120147 -322101c-19300,-53493 -46547,-107357 -61496,-159993 -29321,12830 -97227,95182 -117748,125558 -70453,104282 -92512,238541 -123626,364813 -11131,45177 -45093,163024 -45463,201983z"/>
   <path class="fil2" d="M1860466 925456c13150,15722 34416,120818 42920,149469 68364,2178 177839,-15811 246691,-28651 38584,-7199 74754,-15457 112752,-24577 34682,-8322 74498,-24261 107318,-30287l-17886 -79986 -33751 -133491c-22403,-42555 -32997,-175405 -55257,-235733 -24936,-67566 -67497,-131470 -112615,-184668 -13470,-7963 -29010,-39738 -50187,-50681 -15915,27493 -47882,113225 -62264,148385 -20098,49134 -42704,103770 -65408,151416 -45989,96532 -83002,216975 -112313,318804z"/>
   <path class="fil3" d="M714 1072368c419,-54 141685,40156 159920,44630l33480 7381c70990,14919 191098,31169 261822,21221l21453 -72754c-79766,-3676 -169469,-18147 -248416,-31529 -38491,-6528 -80125,-14757 -117586,-24384 -28158,-7233 -83559,-26661 -107603,-29336 -11943,15584 -15688,55134 -17521,76040l14451 8731z"/>
   <path class="fil4" d="M1903386 1074925c8356,26134 9953,51282 23886,74538 26917,6346 53568,3922 81106,3005 27345,-5750 78444,-7213 111077,-11702 24896,-3424 87259,-19896 105815,-15944 20496,-15678 64737,-20088 92068,-28114 14806,-4346 28882,-8982 43063,-14875 25695,-10672 27340,-9519 25098,-36919l-15352 -53504c-32820,6026 -72636,21965 -107318,30287 -37998,9120 -74168,17378 -112752,24577 -68852,12840 -178327,30829 -246691,28651z"/>
   <path class="fil5" d="M993633 94276c8100,-4967 26192,4094 40259,7331 120852,27789 237201,26311 356916,-3469 20905,-5198 17264,-6282 21309,5770 19669,-21566 88319,-74907 93438,-97557 -95408,34712 -188585,50562 -291631,52577 -53006,1040 -108397,-3079 -160614,-12051 -25804,-4435 -117655,-26937 -127248,-39161l-13175 -2848c8484,18477 64200,78883 80746,89408z"/>
   <path class="fil4 str0" d="M1505555 6351c-5119,22650 -73769,75991 -93438,97557 -65550,37648 -139388,91472 -217931,98271l488 67630 10992 -44c109141,-14240 306516,-136201 352895,-230230 -2133,-14574 -29991,-42476 -53006,-33184z"/>
   <path class="fil6" d="M1558202 574975l11687 3971 1163 -103129 16382 148 424 102425 11830 -2420 -335 -96763c33598,118 76853,23881 100469,46384 44418,42314 17984,18452 6159,103479l-53120 -291 -4409 11855c17210,-10 41363,-3434 53961,3784 -2946,18358 2114,14500 -20935,14816 -10554,143 -22650,-340 -33273,-793l4144 12046 45881 -256c946,38146 -320,81549 -23842,113457 -15422,20916 -49049,50823 -74730,59436l-379 -119158 -11342 -3074c-532,24921 3966,115127 -3173,130830l-12845 1655 -2774 -133441 -11584 4750 488 119083c-76839,-27774 -101065,-95886 -98207,-173533l43555 -25 5410 -12391c-9987,1059 -22334,1759 -32386,1532 -21980,-498 -17397,2666 -21280,-14934 12594,-6711 35663,-3754 52484,-3848l-3572 -12885 -52297 882c-2981,-21482 -9219,-40565 -15382,-60953 -13146,-43492 87141,-85569 121640,-89491l188 96852zm-147203 -30356c6016,23744 17063,45073 22990,71892 22384,101306 -16072,186432 126903,248371 43560,18871 133791,-57800 148597,-117157 10140,-40639 -2616,-85422 23714,-163896 11692,-34844 22547,-35928 -5991,-60529 -14171,-12210 -36072,-28193 -53696,-38127 -98878,-55735 -196789,-15963 -262517,59446z"/>
   <path class="fil3 str0" d="M865089 35515c17565,50586 89407,121552 130633,151341 57470,41526 127666,73444 197794,86102l12150 -3193 -10992 44 -488 -67630c-62648,-11253 -161797,-60574 -200553,-107903 -16546,-10525 -72262,-70931 -80746,-89408 -19615,-9031 -34303,17476 -47798,30647z"/>
   <path class="fil7 str1" d="M1194186 202179c78543,-6799 152381,-60623 217931,-98271 -4045,-12052 -404,-10968 -21309,-5770 -119715,29780 -236064,31258 -356916,3469 -14067,-3237 -32159,-12298 -40259,-7331 38756,47329 137905,96650 200553,107903z"/>
   <path class="fil8" d="M1557532 617028l9627 9785 -17043 10958 -2311 -9292 -58327 -47207 14575 46413 3572 12885 1182 17250 -5410 12391 -13594 48937c22498,-10737 39575,-44152 67418,-49705 384,30016 -13180,17550 -46088,67684l46428 -12441 11584 -4750 18792 956 11342 3074 47266 13875c-13579,-22054 -46478,-46881 -47468,-66905 26656,-1547 44694,36820 67975,47137l-14703 -47586 -4144 -12046 247 -17807 4409 -11855 14112 -49867c-23311,11993 -41063,50739 -68537,48576 5203,-25921 35200,-43526 48404,-66999l-47152 15481 -11830 2420 -17969 556 -11687 -3971 -49932 -12554c9918,8381 38417,42225 49262,54607z"/>
   <path class="fil9" d="M1504053 627685l-14575 -46413 58327 47207 10071 374 -344 -11825c-10845,-12382 -39344,-46226 -49262,-54607l49932 12554 -188 -96852c-34499,3922 -134786,45999 -121640,89491 6163,20388 12401,39471 15382,60953l52297 -882z"/>
   <path class="fil9" d="M1599688 575970l47152 -15481c-13204,23473 -43201,41078 -48404,66999 27474,2163 45226,-36583 68537,-48576l-14112 49867 53120 291c11825,-85027 38259,-61165 -6159,-103479 -23616,-22503 -66871,-46266 -100469,-46384l335 96763z"/>
   <path class="fil9" d="M1599279 723966l379 119158c25681,-8613 59308,-38520 74730,-59436 23522,-31908 24788,-75311 23842,-113457l-45881 256 14703 47586c-23281,-10317 -41319,-48684 -67975,-47137 990,20024 33889,44851 47468,66905l-47266 -13875z"/>
   <path class="fil9" d="M1557561 724686l-46428 12441c32908,-50134 46472,-37668 46088,-67684 -27843,5553 -44920,38968 -67418,49705l13594 -48937 -43555 25c-2858,77647 21368,145759 98207,173533l-488 -119083z"/>
   <path class="fil10" d="M1410999 544619c65728,-75409 163639,-115181 262517,-59446 17624,9934 39525,25917 53696,38127 28538,24601 17683,25685 5991,60529 -26330,78474 -13574,123257 -23714,163896 -14806,59357 -105037,136028 -148597,117157 -142975,-61939 -104519,-147065 -126903,-248371 -5927,-26819 -16974,-48148 -22990,-71892zm-8958 -1562c8125,33421 21680,57500 28597,96986 16585,94689 -15047,112816 62954,191906 14052,14254 62831,45073 83515,45541 32962,749 116112,-57805 136565,-117329 10716,-31184 7218,-80391 12993,-116467 6696,-41861 20861,-65600 29188,-100262 -27503,-23099 -35677,-40220 -71566,-60821 -71128,-40826 -135299,-42994 -208437,-1818 -38589,21724 -45251,40408 -73809,62264z"/>
   <path class="fil11" d="M1587937 720892l-18792 -956 2774 133441 12845 -1655c7139,-15703 2641,-105909 3173,-130830z"/>
   <polygon class="fil11" points="1569889,578946 1587858,578390 1587434,475965 1571052,475817 "/>
   <path class="fil11" d="M1648205 658441c10623,453 22719,936 33273,793 23049,-316 17989,3542 20935,-14816 -12598,-7218 -36751,-3794 -53961,-3784l-247 17807z"/>
   <path class="fil11" d="M1508807 657820l-1182 -17250c-16821,94 -39890,-2863 -52484,3848 3883,17600 -700,14436 21280,14934 10052,227 22399,-473 32386,-1532z"/>
   <polygon class="fil12" points="1547805,628479 1550116,637771 1567159,626813 1557532,617028 1557876,628853 "/>
  </g>
 </g>
</svg>
