<?xml version="1.0" encoding="UTF-8"?>
<!DOCTYPE svg PUBLIC "-//W3C//DTD SVG 1.1//EN" "http://www.w3.org/Graphics/SVG/1.1/DTD/svg11.dtd">
<!-- Creator: CorelDRAW X7 -->
<svg xmlns="http://www.w3.org/2000/svg" xml:space="preserve" width="24px" height="26px" version="1.1" style="shape-rendering:geometricPrecision; text-rendering:geometricPrecision; image-rendering:optimizeQuality; fill-rule:evenodd; clip-rule:evenodd"
viewBox="0 0 2400000 2569493"
 xmlns:xlink="http://www.w3.org/1999/xlink">
 <defs>
  <style type="text/css">
   <![CDATA[
    .str6 {stroke:#BE3E0D;stroke-width:19708.5}
    .str7 {stroke:#F8771B;stroke-width:19708.5}
    .str0 {stroke:#FEFEFE;stroke-width:9854.24}
    .str1 {stroke:#373435;stroke-width:9854.24}
    .str5 {stroke:#373435;stroke-width:9854.24}
    .str2 {stroke:#373435;stroke-width:9854.24}
    .str4 {stroke:#DC3C00;stroke-width:9854.24}
    .str3 {stroke:#F8771B;stroke-width:9854.24}
    .fil1 {fill:none}
    .fil0 {fill:#FEFEFE}
    .fil2 {fill:#373435}
    .fil5 {fill:#BE3E0D}
    .fil4 {fill:#DC3C00}
    .fil3 {fill:#F8771B}
   ]]>
  </style>
 </defs>
 <g id="Camada_x0020_1">
  <metadata id="CorelCorpID_0Corel-Layer"/>
  <g id="_523100036576">
   <rect class="fil0 str0" x="1572" y="8829" width="2396856" height="2551834"/>
   <g>
    <g>
     <rect class="fil1 str1" x="423993" y="1031743" width="116840" height="162322"/>
     <rect class="fil2 str2" x="423993" y="1031743" width="116840" height="162322"/>
     <rect class="fil2 str2" x="433437" y="1590049" width="116840" height="162322"/>
     <rect class="fil1 str1" x="1852777" y="1031743" width="116840" height="162322"/>
     <rect class="fil2 str2" x="1852777" y="1031743" width="116840" height="162322"/>
     <rect class="fil2 str2" x="1843333" y="1590049" width="116840" height="162322"/>
     <path class="fil3 str3" d="M843789 8618c-2242,-873 -5780,142 -66669,17742 -60889,17600 -179135,51779 -238724,69330 -59588,17555 -60520,18486 -55154,124597 5366,106110 17023,317410 28912,566471 11890,249070 24015,535917 28213,738575 4188,202657 458,321135 -10273,435424 -10726,114295 -28449,224416 -39176,301840 -10731,77425 -14461,122163 -10263,157594 4193,35426 16329,61550 31258,79268 14924,17728 32642,27060 52232,35919 19591,8859 41048,17264 78366,21462 37308,4193 90482,4193 185151,4661 94660,463 230826,1385 299343,1853 68506,473 69369,473 69802,-25 429,-502 439,-1517 1232,-377964 788,-376437 2360,-1128311 3158,-1504836 789,-376521 794,-377679 -1251,-379832 -2060,-2138 -6164,-5252 -22749,-21255 -16589,-15994 -45674,-44872 -97005,-74651 -51326,-29765 -124917,-60441 -167340,-92221 -42417,-31775 -53671,-64659 -59770,-82485 -6100,-17821 -7051,-20595 -9293,-21467z"/>
     <path class="fil4 str4" d="M1549821 8618c2241,-873 5779,142 66668,17742 60895,17600 179136,51779 238724,69330 59589,17555 60520,18486 55154,124597 -5365,106110 -17023,317410 -28912,566471 -11889,249070 -24015,535917 -28213,738575 -4188,202657 -458,321135 10273,435424 10727,114295 28450,224416 39176,301840 10731,77425 14461,122163 10263,157594 -4193,35426 -16328,61550 -31257,79268 -14925,17728 -32643,27060 -52233,35919 -19590,8859 -41048,17264 -78366,21462 -37308,4193 -90481,4193 -185151,4661 -94660,463 -230826,1385 -299342,1853 -68507,473 -69369,473 -69798,-25 -433,-502 -443,-1517 -1236,-377964 -789,-376437 -2361,-1128311 -3159,-1504836 -788,-376521 -793,-377679 1252,-379832 2059,-2138 6164,-5252 22748,-21255 16590,-15994 45675,-44872 97005,-74651 51326,-29765 124918,-60441 167340,-92221 42418,-31775 53671,-64659 59771,-82485 6105,-17821 7051,-20595 9293,-21467z"/>
     <path class="fil1 str2" d="M843789 8618c-2242,-873 -5780,142 -66669,17742 -60889,17600 -179135,51779 -238724,69330 -59588,17555 -60520,18486 -55154,124597 5366,106110 17023,317410 28912,566471 11890,249070 24015,535917 28213,738575 4188,202657 458,321135 -10273,435424 -10726,114295 -28449,224416 -39176,301840 -10731,77425 -14461,122163 -10263,157594 4193,35426 16329,61550 31258,79268 14924,17728 32642,27060 52232,35919 19591,8859 41048,17264 78366,21462 37308,4193 90482,4193 185151,4661 94660,463 230826,1385 299343,1853 68506,473 69369,473 69802,-25 429,-502 439,-1517 1232,-377964 788,-376437 2360,-1128311 3158,-1504836 789,-376521 794,-377679 -1251,-379832 -2060,-2138 -6164,-5252 -22749,-21255 -16589,-15994 -45674,-44872 -97005,-74651 -51326,-29765 -124917,-60441 -167340,-92221 -42417,-31775 -53671,-64659 -59770,-82485 -6100,-17821 -7051,-20595 -9293,-21467z"/>
     <path class="fil1 str5" d="M1549821 8618c2241,-873 5779,142 66668,17742 60895,17600 179136,51779 238724,69330 59589,17555 60520,18486 55154,124597 -5365,106110 -17023,317410 -28912,566471 -11889,249070 -24015,535917 -28213,738575 -4188,202657 -458,321135 10273,435424 10727,114295 28450,224416 39176,301840 10731,77425 14461,122163 10263,157594 -4193,35426 -16328,61550 -31257,79268 -14925,17728 -32643,27060 -52233,35919 -19590,8859 -41048,17264 -78366,21462 -37308,4193 -90481,4193 -185151,4661 -94660,463 -230826,1385 -299342,1853 -68507,473 -69369,473 -69798,-25 -433,-502 -443,-1517 -1236,-377964 -789,-376437 -2361,-1128311 -3159,-1504836 -788,-376521 -793,-377679 1252,-379832 2059,-2138 6164,-5252 22748,-21255 16590,-15994 45675,-44872 97005,-74651 51326,-29765 124918,-60441 167340,-92221 42418,-31775 53671,-64659 59771,-82485 6105,-17821 7051,-20595 9293,-21467z"/>
     <path class="fil5 str5" d="M1195137 139162c-2099,-1631 -6302,-1631 -21926,-1631 -15629,0 -42678,0 -82095,-12362 -39412,-12363 -91182,-37082 -134792,-59934 -43614,-22857 -79070,-43851 -96561,-53651 -17487,-9791 -17014,-8381 -11412,11204 5593,19590 16314,57371 33337,90891 17028,33514 40353,62766 67182,87017 26813,24262 57125,43512 90476,59436 33352,15925 69729,28523 96143,34594 26410,6075 42842,5636 51474,5400 8632,-242 9455,-257 9869,-705 404,-448 404,-1320 404,-26739 0,-25419 0,-75395 0,-102016 0,-26612 0,-29869 -2099,-31504z"/>
     <path class="fil5 str5" d="M1198473 139162c2099,-1631 6301,-1631 21925,-1631 15629,0 42679,0 82096,-12362 39412,-12363 91181,-37082 134796,-59934 43610,-22857 79066,-43851 96557,-53651 17486,-9791 17013,-8381 11411,11204 -5592,19590 -16314,57371 -33337,90891 -17028,33514 -40353,62766 -67176,87017 -26818,24262 -57130,43512 -90482,59436 -33351,15925 -69728,28523 -96143,34594 -26409,6075 -42841,5636 -51473,5400 -8633,-242 -9451,-257 -9869,-705 -404,-448 -404,-1320 -404,-26739 0,-25419 0,-75395 0,-102016 0,-26612 0,-29869 2099,-31504z"/>
     <line class="fil1 str6" x1="1196807" y1="143478" x2="1196398" y2= "292178" />
    </g>
    <line class="fil1 str7" x1="1194758" y1="308467" x2="1197975" y2= "2555426" />
   </g>
  </g>
 </g>
</svg>
